<?xml version="1.0" standalone="no"?>
<!DOCTYPE svg PUBLIC "-//W3C//DTD SVG 1.1//EN" "http://www.w3.org/Graphics/SVG/1.1/DTD/svg11.dtd" >
<svg>
<metadata>
Created by FontForge 20090622 at Thu Feb 22 05:51:29 2018
 By deploy user
Copyright 2010 URW++ Design &#38; Development Hamburg
</metadata>
<defs>
<font id="BritannicComD-Med" horiz-adv-x="500" >
  <font-face 
    font-family="BritannicComDMed"
    font-weight="500"
    font-stretch="normal"
    units-per-em="1000"
    panose-1="0 0 6 0 0 0 0 0 0 0"
    ascent="667"
    descent="-333"
    x-height="667"
    cap-height="667"
    bbox="-133 -250 703 838"
    underline-thickness="53"
    underline-position="-45"
    unicode-range="U+0020-U+FB02"
  />
<missing-glyph horiz-adv-x="153" 
 />
    <glyph glyph-name="fi" unicode="fi" horiz-adv-x="414" 
d="M259 667v-32h-144v-275h120v-32h-120v-328h-81v667h225zM378 667v-667h-80v667h80z" />
    <glyph glyph-name="fl" unicode="fl" horiz-adv-x="528" 
d="M259 667v-32h-144v-275h120v-32h-120v-328h-81v667h225zM376 667v-635h164v-32h-243v667h79z" />
    <glyph glyph-name=".notdef" horiz-adv-x="153" 
 />
    <glyph glyph-name=".null" horiz-adv-x="0" 
 />
    <glyph glyph-name="nonmarkingreturn" horiz-adv-x="333" 
 />
    <glyph glyph-name="space" unicode=" " horiz-adv-x="153" 
 />
    <glyph glyph-name="exclam" unicode="!" horiz-adv-x="253" 
d="M110 184l-34 436q-4 56 51 56q26 0 39.5 -12.5t11.5 -34.5l-1 -9l-34 -436h-33zM127 93q21 0 35.5 -14.5t14.5 -35.5t-14.5 -35.5t-35.5 -14.5t-35.5 14.5t-14.5 36.5q0 20 15 34.5t35 14.5z" />
    <glyph glyph-name="quotedbl" unicode="&#x22;" horiz-adv-x="267" 
d="M95 400h-61l-13 267h87zM233 400h-61l-13 267h87z" />
    <glyph glyph-name="numbersign" unicode="#" horiz-adv-x="366" 
d="M251 230l-27 -197h-49l27 197h-66l-28 -197h-49l28 197h-67l7 49h66l14 98h-66l6 49h67l26 181h49l-26 -181h67l25 181h49l-25 -181h67l-7 -49h-67l-14 -98h67l-7 -49h-67zM223 377h-67l-13 -98h66z" />
    <glyph glyph-name="dollar" unicode="$" horiz-adv-x="312" 
d="M142 -96v90q-56 4 -87.5 32t-31.5 75q0 10 1 25l1 7l48 18q-10 -42 -10 -54q0 -31 22 -53t57 -25v246l-71 89q-48 62 -48 158q0 68 31.5 110.5t87.5 50.5v75h28v-74q54 -8 78.5 -37t23.5 -86l-44 -17q6 32 6 44q0 26 -18 45t-46 23v-254l51 -66q37 -49 52.5 -89t15.5 -88
q0 -65 -32 -106.5t-87 -47.5v-91h-28zM142 429v215q-53 -17 -53 -83q0 -63 48 -125zM170 230v-207q26 10 37.5 33t11.5 64q0 27 -10 49t-39 61z" />
    <glyph glyph-name="percent" unicode="%" horiz-adv-x="412" 
d="M189 528v-54q0 -70 -13 -97q-23 -48 -78 -48q-60 0 -81 57q-10 24 -10 88v54q0 70 13 97q23 48 78 48q61 0 81 -57q10 -27 10 -88zM68 528v-54q0 -65 4 -85q6 -37 26 -37q21 0 27 43q3 23 3 79v52q-2 77 -4 88q-6 37 -26 37q-21 0 -27 -44q-3 -19 -3 -79zM30 0l313 667
h39l-313 -667h-39zM405 194v-54q0 -69 -13 -96q-23 -48 -78 -48q-60 0 -81 56q-10 29 -10 88v54q0 70 13 97q23 48 78 48q61 0 81 -57q10 -26 10 -88zM284 194v-54q0 -65 4 -85q6 -36 26 -36q21 0 27 43q3 21 3 78v52q-2 77 -4 88q-6 37 -26 37q-21 0 -27 -44q-3 -20 -3 -79
z" />
    <glyph glyph-name="ampersand" unicode="&#x26;" horiz-adv-x="472" 
d="M230 357l137 -227q50 100 57 258h22q-2 -89 -16.5 -151t-49.5 -130l66 -107h-85l-32 50q-32 -34 -59 -47t-67 -13q-86 0 -134 56q-36 39 -36 109v26q0 59 26 94.5t95 71.5q-33 51 -44.5 81t-11.5 64q0 59 34.5 94.5t91.5 35.5q52 0 83.5 -32.5t31.5 -86.5
q0 -94 -109 -146zM317 72l-152 255q-32 -24 -44 -49t-12 -68q0 -61 9.5 -95.5t32.5 -59.5q34 -37 76 -37q50 0 90 54zM196 418l25 -43q94 47 94 125q0 43 -23.5 71.5t-58.5 28.5q-29 0 -49.5 -21t-20.5 -51v-12q0 -43 33 -98z" />
    <glyph glyph-name="quotesingle" unicode="'" horiz-adv-x="132" 
d="M97 400h-63l-13 267h89z" />
    <glyph glyph-name="parenleft" unicode="(" horiz-adv-x="195" 
d="M185 -13v-20q-76 42 -117 109q-27 46 -37.5 97t-10.5 135v50q0 91 13.5 147t46.5 103q37 53 105 92v-20q-55 -64 -71 -123.5t-16 -198.5v-50q0 -139 16 -198.5t71 -122.5z" />
    <glyph glyph-name="parenright" unicode=")" horiz-adv-x="195" 
d="M10 680v20q77 -44 117 -110q27 -45 37.5 -96t10.5 -136v-50q0 -90 -13.5 -146t-46.5 -104q-37 -52 -105 -91v20q55 63 71 122.5t16 198.5v50q0 139 -16 198.5t-71 123.5z" />
    <glyph glyph-name="asterisk" unicode="*" horiz-adv-x="367" 
d="M173 552l-19 127q21 -6 32 -6q10 0 31 6l-18 -127l114 59q0 -22 2.5 -31.5t14.5 -28.5l-125 -20l88 -93q-22 -7 -29 -12.5t-19 -24.5l-60 114l-59 -115q-14 19 -21.5 24.5t-28.5 12.5l87 94l-125 21q13 18 15.5 26.5t4.5 31.5z" />
    <glyph glyph-name="plus" unicode="+" horiz-adv-x="312" 
d="M180 469v-120h120v-49h-120v-120h-49v120h-120v49h120v120h49z" />
    <glyph glyph-name="comma" unicode="," horiz-adv-x="140" 
d="M20 -127v26q22 11 38.5 40.5t16.5 58.5q-55 3 -55 53q0 22 14 36.5t35 14.5q23 0 37 -17t14 -44q0 -52 -29.5 -101.5t-70.5 -66.5z" />
    <glyph glyph-name="hyphen" unicode="-" horiz-adv-x="148" 
d="M137 365v-62h-126v62h126z" />
    <glyph glyph-name="period" unicode="." horiz-adv-x="140" 
d="M70 93q21 0 35.5 -14.5t14.5 -35.5t-14.5 -35.5t-35.5 -14.5t-35.5 14.5t-14.5 36.5q0 20 15 34.5t35 14.5z" />
    <glyph glyph-name="slash" unicode="/" horiz-adv-x="282" 
d="M0 -33l242 733h40l-242 -733h-40z" />
    <glyph glyph-name="zero" unicode="0" horiz-adv-x="312" 
d="M294 436v-205q0 -115 -21 -161q-35 -77 -117 -77q-91 0 -124 92q-15 42 -15 146v205q0 115 21 161q35 77 118 77q44 0 76 -24t47 -68q15 -42 15 -146zM102 436v-205q0 -103 6 -144q12 -67 47 -67q40 0 49 79q5 30 5 132v201q-3 130 -6 148q-12 67 -48 67q-39 0 -48 -79
q-5 -30 -5 -132z" />
    <glyph glyph-name="one" unicode="1" horiz-adv-x="198" 
d="M158 667v-667h-78v574q-30 -20 -66 -23q-4 -1 -7 -1v35q44 9 68.5 28t38.5 54h44z" />
    <glyph glyph-name="two" unicode="2" horiz-adv-x="285" 
d="M260 61v-61h-240v89q0 39 14.5 73.5t52.5 86.5l49 66q29 40 39.5 71t10.5 75v103q0 38 -15.5 61t-41.5 23q-28 0 -47 -26t-19 -64q0 -19 16 -65l-47 12q-9 35 -9 58q0 49 34.5 80t89.5 31q54 0 86 -34.5t32 -93.5v-42q0 -67 -20 -105q-8 -17 -16.5 -28t-51.5 -61
q-55 -63 -72 -105.5t-17 -114.5v-29h172z" />
    <glyph glyph-name="three" unicode="3" horiz-adv-x="287" 
d="M13 142h42q-8 -32 -8 -52q0 -30 19.5 -50t49.5 -20q72 0 72 121v82q0 58 -20 80t-72 22h-32v34h20q57 0 75 21t18 88v82q0 53 -12.5 75t-41.5 22q-27 0 -45.5 -19.5t-18.5 -47.5q0 -16 6 -48l-43 11q-1 14 -1 28q0 45 33.5 74t85.5 29q56 0 87 -33t31 -93v-82
q0 -47 -17.5 -74.5t-57.5 -45.5q47 -14 67 -43t20 -84v-82q0 -70 -42 -108q-42 -36 -100 -36q-55 0 -88 27t-33 72q0 16 6 50z" />
    <glyph glyph-name="four" unicode="4" horiz-adv-x="280" 
d="M267 183h-40v-183h-79v183h-141v31l172 456h48v-451h40v-36zM47 219h101v268z" />
    <glyph glyph-name="five" unicode="5" horiz-adv-x="291" 
d="M258 667l-12 -61h-159l-25 -235q30 26 78 26q72 0 110 -51q24 -34 24 -106v-82q0 -74 -40.5 -119.5t-105.5 -45.5q-53 0 -87 26.5t-34 67.5q0 10 4 38l42 8q-6 -30 -6 -45q0 -29 18.5 -48.5t46.5 -19.5q39 0 60.5 36.5t21.5 103.5v82q0 45 -6 69q-14 54 -68 54
q-20 0 -33 -8t-36 -35l-30 8l37 337h200z" />
    <glyph glyph-name="six" unicode="6" horiz-adv-x="298" 
d="M266 565l-43 -10q5 30 5 44q0 21 -12.5 34.5t-31.5 13.5q-44 0 -66 -52q-20 -45 -20 -161v-68q26 38 76 38q106 0 106 -155v-75q0 -87 -33.5 -134t-95.5 -47q-70 0 -102 50.5t-32 161.5v204q0 102 21 155q19 52 56 81t81 29q42 0 67.5 -22.5t25.5 -59.5q0 -1 -2 -27z
M98 257v-123q0 -64 14 -89q15 -25 37 -25q26 0 38 29t12 94v123q0 112 -39 112q-27 0 -44.5 -34t-17.5 -87z" />
    <glyph glyph-name="seven" unicode="7" horiz-adv-x="299" 
d="M293 667v-47q-133 -220 -139 -620h-88q7 181 43 304t134 301h-236l9 62h277z" />
    <glyph glyph-name="eight" unicode="8" horiz-adv-x="323" 
d="M206 377q62 -52 81.5 -88.5t19.5 -103.5q0 -91 -38 -137q-44 -55 -114 -55q-63 0 -101 46t-38 123q0 53 17 89.5t62 78.5q8 8 12 11q-45 38 -61 71.5t-16 91.5q0 76 37 123t98 47q51 0 83 -39t32 -101q0 -96 -74 -157zM159 412l27 -20q24 23 33.5 51t9.5 77
q0 70 -15 98.5t-52 28.5q-34 0 -52 -27.5t-18 -77.5q0 -47 14 -74.5t53 -55.5zM165 298l-38 28q-36 -38 -48 -71t-12 -97q0 -66 18 -99q10 -18 29.5 -29t40.5 -11q41 0 63.5 33t22.5 94q0 54 -16.5 86.5t-59.5 65.5z" />
    <glyph glyph-name="nine" unicode="9" horiz-adv-x="298" 
d="M31 101l43 10q-5 -30 -5 -43q0 -21 12.5 -34.5t31.5 -13.5q43 0 65 51q8 18 14.5 67.5t6.5 94.5v67q-28 -37 -76 -37q-106 0 -106 154v75q0 87 33.5 134t95.5 47q70 0 102 -50.5t32 -161.5v-204q0 -101 -21 -154q-20 -51 -56.5 -80.5t-80.5 -29.5q-42 0 -67.5 22
t-25.5 59q0 3 2 27zM199 409v123q0 62 -15 89q-13 25 -36 25q-26 0 -38 -29t-12 -94v-122q0 -112 39 -112q27 0 44.5 34t17.5 86z" />
    <glyph glyph-name="colon" unicode=":" horiz-adv-x="140" 
d="M70 93q21 0 35.5 -14.5t14.5 -35.5t-14.5 -35.5t-35.5 -14.5t-35.5 14.5t-14.5 36.5q0 20 15 34.5t35 14.5zM70 442q21 0 35.5 -14.5t14.5 -35.5t-14.5 -35.5t-35.5 -14.5t-35.5 14.5t-14.5 36.5q0 20 15 34.5t35 14.5z" />
    <glyph glyph-name="semicolon" unicode=";" horiz-adv-x="141" 
d="M21 -127v26q22 11 38.5 40.5t16.5 58.5q-55 3 -55 53q0 22 14 36.5t35 14.5q23 0 37 -17t14 -44q0 -52 -29.5 -101.5t-70.5 -66.5zM70 442q21 0 35.5 -14.5t14.5 -35.5t-14.5 -35.5t-35.5 -14.5t-35.5 14.5t-14.5 36.5q0 20 15 34.5t35 14.5z" />
    <glyph glyph-name="less" unicode="&#x3c;" 
d="M466 576v-81l-346 -160l346 -160v-80l-433 205v70z" />
    <glyph glyph-name="equal" unicode="=" horiz-adv-x="312" 
d="M300 402v-49h-289v49h289zM300 296v-49h-289v49h289z" />
    <glyph glyph-name="greater" unicode="&#x3e;" 
d="M34 95v81l346 159l-346 160v81l433 -206v-70z" />
    <glyph glyph-name="question" unicode="?" horiz-adv-x="275" 
d="M53 113v260h31q9 -37 19 -49t30 -12q26 0 38 30q9 19 9 92v82q0 71 -12.5 101t-42.5 30q-22 0 -34.5 -18t-12.5 -48q0 -16 9 -55l-40 11q-6 30 -6 50q0 37 27.5 62t68.5 25q31 0 57.5 -16.5t37.5 -42.5q15 -33 15 -97v-81q0 -68 -17 -102q-12 -23 -36 -37.5t-50 -14.5
q-32 0 -57 24v-194h-34zM70 93q21 0 35.5 -14.5t14.5 -35.5t-14.5 -35.5t-35.5 -14.5t-35.5 14.5t-14.5 36.5q0 20 15 34.5t35 14.5z" />
    <glyph glyph-name="at" unicode="@" horiz-adv-x="709" 
d="M444 489l4 19q14 -1 25 -1q16 0 43 7l-41 -216q-10 -50 -10 -70q0 -26 13.5 -42t36.5 -16q36 0 58 32q26 37 42 96.5t16 119.5q0 109 -66 175.5t-174 66.5q-150 0 -236 -120q-76 -106 -76 -254q0 -127 66 -202.5t178 -75.5q43 0 104 14v-22q-65 -13 -111 -13
q-131 0 -213.5 86.5t-82.5 223.5q0 166 106 274.5t267 108.5q133 0 215 -78t82 -204q0 -105 -56 -176.5t-138 -71.5q-86 0 -95 77q-46 -74 -115 -74q-46 0 -75 36.5t-29 95.5q0 95 54 163.5t129 68.5q43 0 79 -28zM375 498q-22 1 -44.5 -15t-37.5 -43q-20 -37 -34 -88.5
t-14 -88.5q0 -41 14.5 -65t39.5 -24q22 0 46.5 18t39.5 46q20 36 33 86.5t13 93.5q0 77 -56 80z" />
    <glyph glyph-name="A" unicode="A" horiz-adv-x="285" 
d="M171 667l119 -667h-82l-40 226h-98l-41 -226h-36l123 667h55zM121 506l-44 -248h85z" />
    <glyph glyph-name="B" unicode="B" horiz-adv-x="333" 
d="M34 0v667h130q70 0 109 -37q30 -29 30 -92v-82q0 -51 -14 -73t-57 -38q47 -17 66.5 -45.5t19.5 -82.5v-82q0 -63 -26 -92q-38 -43 -107 -43h-151zM114 30h28q64 0 81 36q10 21 10 71v86q0 106 -93 106h-26v-299zM114 359h37q37 0 53 21.5t16 71.5v86q0 55 -16 76t-59 21
h-31v-276z" />
    <glyph glyph-name="C" unicode="C" horiz-adv-x="300" 
d="M247 166l41 -12q1 -14 1 -27q0 -54 -34 -96q-30 -38 -89 -38q-145 0 -145 225v204q0 135 46 193q45 59 112 59q37 0 63.5 -23t35.5 -61q3 -20 3 -42l-39 -21v28q0 40 -17 65t-43 25t-45 -24q-20 -27 -26.5 -64.5t-6.5 -120.5v-231q0 -69 7.5 -104.5t27.5 -58.5
q16 -19 41 -19q30 0 49.5 30t19.5 76q0 15 -2 37z" />
    <glyph glyph-name="D" unicode="D" horiz-adv-x="347" 
d="M34 0v667h109q77 0 121 -41q34 -31 47.5 -73t13.5 -117v-205q0 -75 -13.5 -117t-48.5 -74q-44 -40 -121 -40h-108zM113 30h16q63 0 93 55q11 22 15 50t4 93v211q0 72 -4.5 99.5t-18.5 50.5q-31 48 -89 48h-16v-607z" />
    <glyph glyph-name="E" unicode="E" horiz-adv-x="283" 
d="M258 667v-32h-143v-263h120v-30h-120v-310h165v-32h-246v667h224z" />
    <glyph glyph-name="F" unicode="F" horiz-adv-x="262" 
d="M259 667v-32h-144v-275h120v-32h-120v-328h-81v667h225z" />
    <glyph glyph-name="G" unicode="G" horiz-adv-x="354" 
d="M160 342h172v-342h-27l-8 26q-25 -20 -44 -27t-50 -7q-94 0 -138 58t-44 182v190q0 136 52 194q50 58 125 58q44 0 76.5 -23t42.5 -61q4 -15 5 -42l-40 -21q1 15 1 27q0 40 -22.5 65.5t-58.5 25.5q-34 0 -55 -24q-25 -29 -34 -70.5t-9 -127.5v-207q0 -112 29 -157
q26 -40 68 -40q23 0 38 14.5t15 37.5v239h-94v32z" />
    <glyph glyph-name="H" unicode="H" horiz-adv-x="345" 
d="M114 335v-335h-80v667h80v-300h116v300h80v-667h-80v335h-116z" />
    <glyph glyph-name="I" unicode="I" horiz-adv-x="152" 
d="M116 667v-667h-80v667h80z" />
    <glyph glyph-name="J" unicode="J" horiz-adv-x="211" 
d="M179 667v-565q0 -52 -25 -80.5t-69 -28.5q-43 0 -66.5 26t-23.5 75q0 24 12 68l44 10q-19 -53 -19 -78q0 -30 11 -50.5t27 -20.5q28 0 28 61v583h81z" />
    <glyph glyph-name="K" unicode="K" horiz-adv-x="316" 
d="M36 667h80v-292l147 292h42l-127 -249l149 -418h-88l-121 339l-2 -3v-336h-80v667z" />
    <glyph glyph-name="L" unicode="L" horiz-adv-x="266" 
d="M113 667v-635h165v-32h-244v667h79z" />
    <glyph glyph-name="M" unicode="M" horiz-adv-x="412" 
d="M378 667v-667h-81v487l-92 -487h-49l-89 481v-481h-35v667h82l90 -507l93 507h81z" />
    <glyph glyph-name="N" unicode="N" horiz-adv-x="318" 
d="M285 667v-667h-59l-159 509v-509h-35v667h69l151 -491v491h33z" />
    <glyph glyph-name="O" unicode="O" horiz-adv-x="345" 
d="M21 231v205q0 77 7.5 114t29.5 69q38 55 115 55t115 -55q22 -32 29.5 -69.5t7.5 -113.5v-205q0 -79 -7.5 -115t-29.5 -68q-37 -55 -115 -55q-77 0 -115 55q-22 32 -29.5 69t-7.5 114zM240 231v205q0 116 -9 152q-15 60 -58 60q-36 0 -52 -42q-15 -36 -15 -170v-205
q0 -116 9 -153q15 -59 58 -59q46 0 60 68q7 33 7 144z" />
    <glyph glyph-name="P" unicode="P" horiz-adv-x="321" 
d="M34 0v667h108q91 0 131 -34t40 -111v-82q0 -79 -39 -112.5t-132 -33.5h-27v-294h-81zM115 325h12q58 0 82 27q19 20 19 92v89q0 56 -22.5 79t-78.5 23h-12v-310z" />
    <glyph glyph-name="Q" unicode="Q" horiz-adv-x="345" 
d="M298 17l33 -10q2 -11 2 -22q0 -33 -16.5 -52t-45.5 -19q-59 0 -79 80q-9 -1 -23 -1q-73 0 -111 55q-22 32 -29.5 69t-7.5 114v205q0 77 7.5 114t29.5 69q38 55 115 55t115 -55q22 -32 29.5 -69.5t7.5 -113.5v-205q0 -79 -7.5 -115.5t-29.5 -68.5q-16 -22 -40 -37
q3 -17 13 -28.5t21 -11.5q18 0 18 23q0 3 -1 14q0 6 -1 10zM106 436v-205q0 -101 7 -141q18 24 50 24q42 0 64 -50q13 47 13 167v205q0 116 -9 152q-15 60 -58 60q-36 0 -52 -42q-15 -36 -15 -170zM124 53q16 -30 47 -30q8 0 16 1q-9 52 -30 52t-33 -23z" />
    <glyph glyph-name="R" unicode="R" horiz-adv-x="335" 
d="M34 0v667h120q80 0 118 -32.5t38 -99.5v-82q0 -97 -82 -121q37 -12 55 -38q7 -12 9 -35.5t3 -103.5t4.5 -107t13.5 -37q3 -4 10 -11h-93q-10 15 -13 41.5t-4 119.5q0 74 -3 100t-14 39q-17 19 -65 19h-16v-319h-81zM115 348h15q45 0 69 17q17 14 23 31.5t6 52.5v86
q0 35 -6 52.5t-23 31.5q-24 17 -69 17h-15v-288z" />
    <glyph glyph-name="S" unicode="S" horiz-adv-x="297" 
d="M264 551l-44 -17q6 32 6 44q0 28 -22 48.5t-52 20.5q-33 0 -52 -23t-19 -63q0 -62 48 -126l84 -110q37 -49 52.5 -88.5t15.5 -88.5q0 -70 -37.5 -112.5t-99.5 -42.5q-59 0 -94 29.5t-35 78.5q0 13 2 32l48 18q-10 -41 -10 -55q0 -32 24.5 -55t58.5 -23q73 0 73 101
q0 30 -12.5 56t-51.5 73l-84 106q-48 62 -48 158q0 73 37 117.5t99 44.5q34 0 61.5 -15t40.5 -41q8 -18 11 -67z" />
    <glyph glyph-name="T" unicode="T" horiz-adv-x="248" 
d="M255 667v-32h-89v-635h-83v635h-90v32h262z" />
    <glyph glyph-name="U" unicode="U" horiz-adv-x="331" 
d="M30 667h80v-534q0 -39 2.5 -52.5t13.5 -29.5q20 -29 64 -29q43 0 63 29q11 16 13.5 29.5t2.5 52.5v534h33v-534q0 -63 -18 -92q-28 -48 -119 -48q-78 0 -110 39q-25 32 -25 101v534z" />
    <glyph glyph-name="V" unicode="V" horiz-adv-x="267" 
d="M273 667l-117 -667h-56l-105 667h81l73 -502l88 502h36z" />
    <glyph glyph-name="W" unicode="W" horiz-adv-x="437" 
d="M444 667l-108 -667h-53l-65 483l-68 -483h-54l-101 667h83l63 -482l69 482h64l58 -485l76 485h36z" />
    <glyph glyph-name="X" unicode="X" horiz-adv-x="290" 
d="M175 377l123 -377h-89l-81 251l-95 -251h-39l116 307l-117 360h88l76 -234l88 234h39z" />
    <glyph glyph-name="Y" unicode="Y" horiz-adv-x="264" 
d="M276 667l-91 -354v-313h-80v306l-115 361h86l90 -292l75 292h35z" />
    <glyph glyph-name="Z" unicode="Z" horiz-adv-x="285" 
d="M284 667v-29l-194 -606h186v-32h-276v30l195 605h-178v32h267z" />
    <glyph glyph-name="bracketleft" unicode="[" horiz-adv-x="184" 
d="M174 694v-27h-57v-667h57v-27h-134v721h134z" />
    <glyph glyph-name="backslash" unicode="\" horiz-adv-x="282" 
d="M0 700h40l242 -733h-40z" />
    <glyph glyph-name="bracketright" unicode="]" horiz-adv-x="184" 
d="M10 -27v27h57v667h-57v27h134v-721h-134z" />
    <glyph glyph-name="asciicircum" unicode="^" 
d="M107 373h-76l173 295h92l174 -295h-77l-143 240z" />
    <glyph glyph-name="underscore" unicode="_" 
d="M0 -71h500v-53h-500v53z" />
    <glyph glyph-name="grave" unicode="`" 
d="M249 694l-120 123h76l79 -123h-35z" />
    <glyph glyph-name="a" unicode="a" horiz-adv-x="285" 
d="M171 667l119 -667h-82l-40 226h-98l-41 -226h-36l123 667h55zM121 506l-44 -248h85z" />
    <glyph glyph-name="b" unicode="b" horiz-adv-x="333" 
d="M34 0v667h130q70 0 109 -37q30 -29 30 -92v-82q0 -51 -14 -73t-57 -38q47 -17 66.5 -45.5t19.5 -82.5v-82q0 -63 -26 -92q-38 -43 -107 -43h-151zM114 30h28q64 0 81 36q10 21 10 71v86q0 106 -93 106h-26v-299zM114 359h37q37 0 53 21.5t16 71.5v86q0 55 -16 76t-59 21
h-31v-276z" />
    <glyph glyph-name="c" unicode="c" horiz-adv-x="300" 
d="M247 166l41 -12q1 -14 1 -27q0 -54 -34 -96q-30 -38 -89 -38q-145 0 -145 225v204q0 135 46 193q45 59 112 59q37 0 63.5 -23t35.5 -61q3 -20 3 -42l-39 -21v28q0 40 -17 65t-43 25t-45 -24q-20 -27 -26.5 -64.5t-6.5 -120.5v-231q0 -69 7.5 -104.5t27.5 -58.5
q16 -19 41 -19q30 0 49.5 30t19.5 76q0 15 -2 37z" />
    <glyph glyph-name="d" unicode="d" horiz-adv-x="347" 
d="M34 0v667h109q77 0 121 -41q34 -31 47.5 -73t13.5 -117v-205q0 -75 -13.5 -117t-48.5 -74q-44 -40 -121 -40h-108zM113 30h16q63 0 93 55q11 22 15 50t4 93v211q0 72 -4.5 99.5t-18.5 50.5q-31 48 -89 48h-16v-607z" />
    <glyph glyph-name="e" unicode="e" horiz-adv-x="283" 
d="M258 667v-32h-143v-263h120v-30h-120v-310h165v-32h-246v667h224z" />
    <glyph glyph-name="f" unicode="f" horiz-adv-x="262" 
d="M259 667v-32h-144v-275h120v-32h-120v-328h-81v667h225z" />
    <glyph glyph-name="g" unicode="g" horiz-adv-x="354" 
d="M160 342h172v-342h-27l-8 26q-25 -20 -44 -27t-50 -7q-94 0 -138 58t-44 182v190q0 136 52 194q50 58 125 58q44 0 76.5 -23t42.5 -61q4 -15 5 -42l-40 -21q1 15 1 27q0 40 -22.5 65.5t-58.5 25.5q-34 0 -55 -24q-25 -29 -34 -70.5t-9 -127.5v-207q0 -112 29 -157
q26 -40 68 -40q23 0 38 14.5t15 37.5v239h-94v32z" />
    <glyph glyph-name="h" unicode="h" horiz-adv-x="345" 
d="M114 335v-335h-80v667h80v-300h116v300h80v-667h-80v335h-116z" />
    <glyph glyph-name="i" unicode="i" horiz-adv-x="152" 
d="M116 667v-667h-80v667h80z" />
    <glyph glyph-name="j" unicode="j" horiz-adv-x="211" 
d="M179 667v-565q0 -52 -25 -80.5t-69 -28.5q-43 0 -66.5 26t-23.5 75q0 24 12 68l44 10q-19 -53 -19 -78q0 -30 11 -50.5t27 -20.5q28 0 28 61v583h81z" />
    <glyph glyph-name="k" unicode="k" horiz-adv-x="316" 
d="M36 667h80v-292l147 292h42l-127 -249l149 -418h-88l-121 339l-2 -3v-336h-80v667z" />
    <glyph glyph-name="l" unicode="l" horiz-adv-x="266" 
d="M113 667v-635h165v-32h-244v667h79z" />
    <glyph glyph-name="m" unicode="m" horiz-adv-x="412" 
d="M378 667v-667h-81v487l-92 -487h-49l-89 481v-481h-35v667h82l90 -507l93 507h81z" />
    <glyph glyph-name="n" unicode="n" horiz-adv-x="318" 
d="M285 667v-667h-59l-159 509v-509h-35v667h69l151 -491v491h33z" />
    <glyph glyph-name="o" unicode="o" horiz-adv-x="345" 
d="M21 231v205q0 77 7.5 114t29.5 69q38 55 115 55t115 -55q22 -32 29.5 -69.5t7.5 -113.5v-205q0 -79 -7.5 -115t-29.5 -68q-37 -55 -115 -55q-77 0 -115 55q-22 32 -29.5 69t-7.5 114zM240 231v205q0 116 -9 152q-15 60 -58 60q-36 0 -52 -42q-15 -36 -15 -170v-205
q0 -116 9 -153q15 -59 58 -59q46 0 60 68q7 33 7 144z" />
    <glyph glyph-name="p" unicode="p" horiz-adv-x="321" 
d="M34 0v667h108q91 0 131 -34t40 -111v-82q0 -79 -39 -112.5t-132 -33.5h-27v-294h-81zM115 325h12q58 0 82 27q19 20 19 92v89q0 56 -22.5 79t-78.5 23h-12v-310z" />
    <glyph glyph-name="q" unicode="q" horiz-adv-x="345" 
d="M298 17l33 -10q2 -11 2 -22q0 -33 -16.5 -52t-45.5 -19q-59 0 -79 80q-9 -1 -23 -1q-73 0 -111 55q-22 32 -29.5 69t-7.5 114v205q0 77 7.5 114t29.5 69q38 55 115 55t115 -55q22 -32 29.5 -69.5t7.5 -113.5v-205q0 -79 -7.5 -115.5t-29.5 -68.5q-16 -22 -40 -37
q3 -17 13 -28.5t21 -11.5q18 0 18 23q0 3 -1 14q0 6 -1 10zM106 436v-205q0 -101 7 -141q18 24 50 24q42 0 64 -50q13 47 13 167v205q0 116 -9 152q-15 60 -58 60q-36 0 -52 -42q-15 -36 -15 -170zM124 53q16 -30 47 -30q8 0 16 1q-9 52 -30 52t-33 -23z" />
    <glyph glyph-name="r" unicode="r" horiz-adv-x="335" 
d="M34 0v667h120q80 0 118 -32.5t38 -99.5v-82q0 -97 -82 -121q37 -12 55 -38q7 -12 9 -35.5t3 -103.5t4.5 -107t13.5 -37q3 -4 10 -11h-93q-10 15 -13 41.5t-4 119.5q0 74 -3 100t-14 39q-17 19 -65 19h-16v-319h-81zM115 348h15q45 0 69 17q17 14 23 31.5t6 52.5v86
q0 35 -6 52.5t-23 31.5q-24 17 -69 17h-15v-288z" />
    <glyph glyph-name="s" unicode="s" horiz-adv-x="297" 
d="M264 551l-44 -17q6 32 6 44q0 28 -22 48.5t-52 20.5q-33 0 -52 -23t-19 -63q0 -62 48 -126l84 -110q37 -49 52.5 -88.5t15.5 -88.5q0 -70 -37.5 -112.5t-99.5 -42.5q-59 0 -94 29.5t-35 78.5q0 13 2 32l48 18q-10 -41 -10 -55q0 -32 24.5 -55t58.5 -23q73 0 73 101
q0 30 -12.5 56t-51.5 73l-84 106q-48 62 -48 158q0 73 37 117.5t99 44.5q34 0 61.5 -15t40.5 -41q8 -18 11 -67z" />
    <glyph glyph-name="t" unicode="t" horiz-adv-x="248" 
d="M255 667v-32h-89v-635h-83v635h-90v32h262z" />
    <glyph glyph-name="u" unicode="u" horiz-adv-x="331" 
d="M30 667h80v-534q0 -39 2.5 -52.5t13.5 -29.5q20 -29 64 -29q43 0 63 29q11 16 13.5 29.5t2.5 52.5v534h33v-534q0 -63 -18 -92q-28 -48 -119 -48q-78 0 -110 39q-25 32 -25 101v534z" />
    <glyph glyph-name="v" unicode="v" horiz-adv-x="267" 
d="M273 667l-117 -667h-56l-105 667h81l73 -502l88 502h36z" />
    <glyph glyph-name="w" unicode="w" horiz-adv-x="437" 
d="M444 667l-108 -667h-53l-65 483l-68 -483h-54l-101 667h83l63 -482l69 482h64l58 -485l76 485h36z" />
    <glyph glyph-name="x" unicode="x" horiz-adv-x="290" 
d="M175 377l123 -377h-89l-81 251l-95 -251h-39l116 307l-117 360h88l76 -234l88 234h39z" />
    <glyph glyph-name="y" unicode="y" horiz-adv-x="264" 
d="M276 667l-91 -354v-313h-80v306l-115 361h86l90 -292l75 292h35z" />
    <glyph glyph-name="z" unicode="z" horiz-adv-x="285" 
d="M284 667v-29l-194 -606h186v-32h-276v30l195 605h-178v32h267z" />
    <glyph glyph-name="braceleft" unicode="{" horiz-adv-x="196" 
d="M189 0v-27h-10q-46 0 -71 12.5t-41 41.5q-16 28 -16 95v102q0 45 -9.5 67t-34.5 32v20q25 10 34.5 32t9.5 67v102q0 71 20 102q16 26 40.5 36.5t67.5 10.5h10v-27h-4q-30 0 -43.5 -23t-13.5 -73v-121q0 -90 -57 -116q31 -16 44 -42t13 -74v-121q0 -50 13.5 -73t43.5 -23
h4z" />
    <glyph glyph-name="bar" unicode="|" 
d="M209 667h81v-834h-81v834z" />
    <glyph glyph-name="braceright" unicode="}" horiz-adv-x="196" 
d="M7 666v27h10q46 0 71 -12.5t41 -41.5q16 -28 16 -95v-102q0 -45 9.5 -67t34.5 -32v-20q-25 -10 -34.5 -32t-9.5 -67v-102q0 -71 -20 -102q-16 -26 -40.5 -36.5t-67.5 -10.5h-10v27h4q30 0 43.5 23t13.5 73v121q0 90 57 116q-31 16 -44 42t-13 74v121q0 50 -13.5 73
t-43.5 23h-4z" />
    <glyph glyph-name="asciitilde" unicode="~" horiz-adv-x="667" 
d="M137 579l-43 35q54 113 136 113q37 0 116 -40q67 -33 92 -33q27 0 48.5 17.5t43.5 57.5l43 -34q-51 -113 -144 -113q-20 0 -41 8t-79 37q-53 27 -82 27q-26 0 -46.5 -17t-43.5 -58z" />
    <glyph glyph-name="uni00A0" unicode="&#xa0;" horiz-adv-x="153" 
 />
    <glyph glyph-name="exclamdown" unicode="&#xa1;" horiz-adv-x="253" 
d="M143 482l34 -436l1 -8q3 -47 -51 -47q-55 0 -51 55l34 436h33zM127 674q21 0 35.5 -14.5t14.5 -36.5q0 -20 -15 -34.5t-35 -14.5q-21 0 -35.5 14.5t-14.5 35.5t14.5 35.5t35.5 14.5z" />
    <glyph glyph-name="cent" unicode="&#xa2;" horiz-adv-x="300" 
d="M157 12v62q-136 10 -136 224v44q0 88 18 139.5t59 84.5q25 20 59 25v63h26v-61q46 -3 72.5 -36.5t25.5 -88.5l-40 -21q1 21 1 27q0 83 -59 91v-462q31 4 48.5 32t17.5 74q0 15 -2 37l40 -12q2 -15 2 -27q0 -35 -16 -67.5t-42 -49.5q-18 -12 -48 -16v-62h-26zM157 109v449
q-14 -8 -20 -18q-20 -28 -26.5 -64.5t-6.5 -119.5v-71q0 -81 12 -120t41 -56z" />
    <glyph glyph-name="sterling" unicode="&#xa3;" horiz-adv-x="305" 
d="M244 333v-30h-84q8 -69 8 -107q0 -62 -23 -119q39 -16 68 -16q21 0 30.5 9.5t17.5 36.5l31 -16q-6 -34 -16 -52q-22 -45 -64 -45q-33 0 -83 38q-27 -39 -64 -39q-22 0 -35.5 13.5t-13.5 34.5q0 24 18 40.5t44 16.5q17 0 35 -6q10 42 10 69q0 31 -8.5 75t-19.5 67h-60v30
h48q-26 58 -26 122v81q0 41 9 65q13 32 44.5 52.5t69.5 20.5q39 0 64.5 -25t25.5 -63q0 -10 -4 -30l-40 -17q8 38 8 51q0 25 -15.5 42.5t-37.5 17.5q-45 0 -45 -88v-81q0 -66 18 -148h90zM104 50q-22 13 -36 13q-10 0 -17.5 -7t-7.5 -16t6 -15t16 -6q23 0 39 31z" />
    <glyph glyph-name="currency" unicode="&#xa4;" horiz-adv-x="312" 
d="M262 253l23 -23l-35 -35l-22 23q-34 -22 -71 -22q-35 0 -72 22l-23 -23l-35 35l23 23q-22 34 -22 72q0 39 22 71l-23 23l35 35l23 -23q35 21 72 21q36 0 71 -21l22 23l35 -35l-23 -23q22 -34 22 -71q0 -38 -22 -72zM155 405q-32 0 -55.5 -24t-23.5 -57q0 -34 23.5 -57.5
t56.5 -23.5q32 0 56 23.5t24 55.5q0 35 -23.5 59t-57.5 24z" />
    <glyph glyph-name="yen" unicode="&#xa5;" horiz-adv-x="312" 
d="M206 333h60v-30h-65v-37h65v-30h-65v-236h-80v236h-65v30h65v37h-65v30h56l-99 334h85l84 -291l82 291h35z" />
    <glyph glyph-name="brokenbar" unicode="&#xa6;" 
d="M209 667h81v-335h-81v335zM209 153h81v-320h-81v320z" />
    <glyph glyph-name="section" unicode="&#xa7;" horiz-adv-x="341" 
d="M160 482l87 -90q46 -46 56 -67q14 -34 14 -67q0 -72 -53 -99q27 -42 27 -99t-32.5 -88t-91.5 -31q-53 0 -84.5 23.5t-31.5 62.5q0 2 0.5 5.5t1 10t0.5 11.5l43 15q-9 -32 -9 -44q0 -26 22 -44.5t54 -18.5q65 0 65 76q0 28 -12 48t-54 61l-87 86q-51 50 -51 119
q0 36 11 56t41 40q-25 43 -25 102q0 39 11 64q13 28 42 44.5t67 16.5q70 0 94 -45q9 -15 10 -55l-39 -14q5 27 5 36q0 23 -20 39.5t-47 16.5q-29 0 -46 -18.5t-17 -50.5q0 -53 49 -102zM133 299l87 -89q14 -14 22 -24q12 15 12 40q0 23 -13.5 45t-52.5 59q-84 83 -96 96
q-8 -13 -8 -26q0 -49 49 -101z" />
    <glyph glyph-name="dieresis" unicode="&#xa8;" 
d="M182 798q19 0 33 -13.5t14 -32.5q0 -20 -13.5 -33.5t-33.5 -13.5q-19 0 -32.5 14t-13.5 33t13.5 32.5t32.5 13.5zM317 798q19 0 33 -13.5t14 -32.5q0 -20 -14 -33.5t-33 -13.5t-32.5 14t-13.5 33t13.5 32.5t32.5 13.5z" />
    <glyph glyph-name="copyright" unicode="&#xa9;" horiz-adv-x="717" 
d="M418 241l31 -9v-5l1 -3v-11q0 -37 -25 -60.5t-65 -23.5q-101 0 -101 138v123q0 83 32 118q30 36 77 36q76 0 78 -81l-31 -16v22q0 23 -12.5 37t-32.5 14q-19 0 -30 -13q-25 -29 -25 -117v-122q0 -114 56 -114q22 0 35.5 17t13.5 45q0 6 -1 17zM358 675q144 0 244.5 -100
t100.5 -244q0 -142 -102.5 -240.5t-248.5 -98.5q-138 0 -238.5 101t-100.5 240q0 142 101 242t244 100zM358 643q-128 0 -217.5 -90.5t-89.5 -219.5q0 -126 89.5 -217.5t212.5 -91.5q130 0 221 89.5t91 217.5q0 130 -89.5 221t-217.5 91z" />
    <glyph glyph-name="ordfeminine" unicode="&#xaa;" horiz-adv-x="208" 
d="M126 667l76 -400h-58l-26 134h-55l-27 -134h-29l79 400h40zM91 550l-23 -124h45z" />
    <glyph glyph-name="guillemotleft" unicode="&#xab;" horiz-adv-x="271" 
d="M251 151h-40l-96 171v23l96 171h40l-75 -183zM176 151h-40l-116 171v23l96 171h40l-75 -183z" />
    <glyph glyph-name="logicalnot" unicode="&#xac;" 
d="M387 0v206h-354v71h433v-277h-79z" />
    <glyph glyph-name="uni00AD" unicode="&#xad;" horiz-adv-x="148" 
d="M137 365v-62h-126v62h126z" />
    <glyph glyph-name="registered" unicode="&#xae;" horiz-adv-x="717" 
d="M266 133v407h75q97 0 97 -83v-49q0 -50 -42 -72q23 -12 28 -27.5t5 -79.5q0 -63 6 -79q0 -1 1 -1.5t2.5 -2.5t3.5 -5l8 -8h-65q-8 12 -9.5 27t-2.5 73q0 63 -7.5 77.5t-38.5 14.5h-6v-192h-55zM321 349h6q31 0 43 12.5t12 44.5v52q0 32 -12 44.5t-43 12.5h-6v-166z
M358 675q144 0 244.5 -100.5t100.5 -243.5q0 -142 -102.5 -240.5t-248.5 -98.5q-138 0 -238.5 101t-100.5 240q0 142 101 242t244 100zM358 643q-128 0 -217.5 -90.5t-89.5 -219.5q0 -126 89.5 -217.5t212.5 -91.5q130 0 221 89.5t91 217.5q0 130 -89.5 221t-217.5 91z" />
    <glyph glyph-name="macron" unicode="&#xaf;" 
d="M354 776v-45h-209v45h209z" />
    <glyph glyph-name="degree" unicode="&#xb0;" horiz-adv-x="312" 
d="M157 670q53 0 90 -37.5t37 -91.5q0 -52 -37.5 -89.5t-89.5 -37.5q-54 0 -91.5 37.5t-37.5 91.5q0 53 37.5 90t91.5 37zM155 623q-32 0 -55.5 -24t-23.5 -57q0 -34 23.5 -57.5t56.5 -23.5q32 0 56 23.5t24 55.5q0 35 -23.5 59t-57.5 24z" />
    <glyph glyph-name="plusminus" unicode="&#xb1;" horiz-adv-x="312" 
d="M180 469v-120h120v-49h-120v-120h-49v120h-120v49h120v120h49zM300 149v-49h-289v49h289z" />
    <glyph glyph-name="twosuperior" unicode="&#xb2;" horiz-adv-x="200" 
d="M178 310v-43h-158v56q0 42 43 97l30 39q31 39 31 83v61q0 21 -9 33.5t-24 12.5q-16 0 -27 -14.5t-11 -35.5q0 -13 12 -42l-37 9q-6 24 -6 36q0 31 22.5 50t58.5 19q35 0 56.5 -21.5t21.5 -56.5v-25q0 -38 -9 -56t-48 -61q-34 -36 -44.5 -60.5t-10.5 -66.5v-14h109z" />
    <glyph glyph-name="threesuperior" unicode="&#xb3;" horiz-adv-x="200" 
d="M16 357h33q-6 -26 -6 -34q-1 -16 11 -27t29 -11q23 0 32.5 15.5t9.5 52.5v49q0 37 -12.5 46.5t-59.5 9.5h-6v28l6 -1h2h9q34 0 44.5 12t10.5 49v49q0 30 -7 42t-24 12q-16 0 -26.5 -10.5t-10.5 -25.5q0 -7 3 -26l1 -7l-34 8q-1 13 -1 19q0 29 22 46.5t57 17.5
q36 0 56.5 -20.5t20.5 -57.5v-48q0 -48 -41 -70q26 -10 37 -27t11 -49v-48q0 -43 -27 -66q-28 -22 -65 -22t-58.5 17t-21.5 45q0 11 4 26z" />
    <glyph glyph-name="acute" unicode="&#xb4;" 
d="M295 817h76l-121 -123h-34z" />
    <glyph glyph-name="mu" unicode="&#xb5;" horiz-adv-x="368" 
d="M114 505v-393q0 -50 11 -67q18 -28 52 -28q36 0 57 51t21 137v287q38 4 73 13v-505h-73v72q-14 -44 -34 -63.5t-53 -19.5q-20 0 -58 7v-162h-70v658q39 4 74 13z" />
    <glyph glyph-name="paragraph" unicode="&#xb6;" horiz-adv-x="308" 
d="M280 667v-727h-35v694h-51v-694h-36v357q-70 5 -100.5 38t-30.5 105v82q0 78 39.5 111.5t130.5 33.5h83z" />
    <glyph glyph-name="periodcentered" unicode="&#xb7;" horiz-adv-x="140" 
d="M70 383q21 0 35.5 -14.5t14.5 -35.5t-14.5 -35.5t-35.5 -14.5t-35.5 14.5t-14.5 36.5q0 20 15 34.5t35 14.5z" />
    <glyph glyph-name="cedilla" unicode="&#xb8;" 
d="M250 10l-20 -53q28 -1 39 -5q17 -7 29 -25t12 -37q0 -31 -25 -54t-60 -23q-18 0 -42 6v26q20 -5 28 -5q16 0 27.5 14t11.5 33q0 44 -49 44h-9l28 79h30z" />
    <glyph glyph-name="onesuperior" unicode="&#xb9;" horiz-adv-x="200" 
d="M140 667v-400h-56v336q-19 -9 -40 -11l-6 -1v27q29 6 44 16.5t25 32.5h33z" />
    <glyph glyph-name="ordmasculine" unicode="&#xba;" horiz-adv-x="238" 
d="M20 407v120q0 47 5 69t19 41q24 34 75 34t75 -34q14 -19 19 -41t5 -69v-120q0 -47 -5 -69t-19 -41q-25 -34 -75 -34q-51 0 -75 34q-14 19 -19 41t-5 69zM158 407v120q0 70 -6 89q-9 33 -33 33q-23 0 -31 -25t-8 -97v-120q0 -70 6 -90q9 -32 33 -32q26 0 35 38q4 21 4 84z
" />
    <glyph glyph-name="guillemotright" unicode="&#xbb;" horiz-adv-x="271" 
d="M20 516h40l96 -171v-23l-96 -171h-40l75 183zM95 516h40l116 -171v-23l-96 -171h-40l75 183z" />
    <glyph glyph-name="onequarter" unicode="&#xbc;" horiz-adv-x="486" 
d="M66 0l314 667h39l-314 -667h-39zM468 108h-25v-108h-57v108h-88v23l109 271h36v-266h25v-28zM331 136h56v137zM140 667v-400h-56v336q-19 -9 -40 -11l-6 -1v27q29 6 44 16.5t25 32.5h33z" />
    <glyph glyph-name="onehalf" unicode="&#xbd;" horiz-adv-x="486" 
d="M66 0l314 667h39l-314 -667h-39zM463 43v-43h-158v56q0 42 43 97l30 39q31 39 31 83v61q0 21 -9 33.5t-24 12.5q-16 0 -27 -14.5t-11 -35.5q0 -13 12 -42l-37 9q-6 24 -6 36q0 31 23 50t58 19t56.5 -21.5t21.5 -56.5v-25q0 -38 -9 -56t-48 -61q-34 -36 -44.5 -60.5
t-10.5 -66.5v-14h109zM140 667v-400h-56v336q-19 -9 -40 -11l-6 -1v27q29 6 44 16.5t25 32.5h33z" />
    <glyph glyph-name="threequarters" unicode="&#xbe;" horiz-adv-x="486" 
d="M16 357h33q-6 -26 -6 -34q0 -16 11 -27t28 -11q43 0 43 68v49q0 35 -13 45.5t-59 10.5h-6v28l6 -1h2h8q34 0 44.5 11.5t10.5 49.5v49q0 30 -7 42t-24 12q-15 0 -25.5 -10.5t-10.5 -25.5q0 -10 4 -33l-34 8q-1 13 -1 19q0 28 22 46t56 18q37 0 57 -20.5t20 -57.5v-48
q0 -49 -41 -70q49 -18 49 -76v-48q0 -40 -25.5 -64t-66.5 -24q-37 0 -58.5 17t-21.5 45q0 11 4 26zM67 0l313 667h40l-314 -667h-39zM469 108h-25v-108h-57v108h-88v23l109 271h36v-266h25v-28zM332 136h56v137z" />
    <glyph glyph-name="questiondown" unicode="&#xbf;" horiz-adv-x="275" 
d="M222 553v-260h-31q-9 37 -19 49t-30 12q-26 0 -38 -30q-9 -21 -9 -92v-82q0 -71 12.5 -100.5t42.5 -29.5q22 0 34.5 17.5t12.5 47.5q0 15 -9 56l40 -11q6 -30 6 -50q0 -37 -27.5 -62t-68.5 -25q-31 0 -57.5 16.5t-37.5 42.5q-15 33 -15 96v82q0 67 17 101q12 23 36 37.5
t50 14.5q32 0 57 -24v194h34zM205 674q21 0 35.5 -14.5t14.5 -36.5q0 -20 -15 -34.5t-35 -14.5q-21 0 -35.5 14.5t-14.5 35.5t14.5 35.5t35.5 14.5z" />
    <glyph glyph-name="Agrave" unicode="&#xc0;" horiz-adv-x="285" 
d="M171 667l119 -667h-82l-40 226h-98l-41 -226h-36l123 667h55zM121 506l-44 -248h85zM142 694l-120 123h75l79 -123h-34z" />
    <glyph glyph-name="Aacute" unicode="&#xc1;" horiz-adv-x="285" 
d="M171 667l119 -667h-82l-40 226h-98l-41 -226h-36l123 667h55zM121 506l-44 -248h85zM188 817h75l-120 -123h-34z" />
    <glyph glyph-name="Acircumflex" unicode="&#xc2;" horiz-adv-x="285" 
d="M171 667l119 -667h-82l-40 226h-98l-41 -226h-36l123 667h55zM121 506l-44 -248h85zM35 696l82 123h49l84 -123h-74l-50 71l-48 -71h-43z" />
    <glyph glyph-name="Atilde" unicode="&#xc3;" horiz-adv-x="285" 
d="M171 667l119 -667h-82l-40 226h-98l-41 -226h-36l123 667h55zM121 506l-44 -248h85zM51 704h-35q8 53 24 72q20 22 43 22q20 0 74 -25q33 -15 45 -15q28 0 32 42h35q-8 -51 -19 -68q-18 -28 -51 -28q-27 0 -75 23q-32 16 -48 16q-18 0 -25 -39z" />
    <glyph glyph-name="Adieresis" unicode="&#xc4;" horiz-adv-x="285" 
d="M171 667l119 -667h-82l-40 226h-98l-41 -226h-36l123 667h55zM121 506l-44 -248h85zM74 798q19 0 33 -13.5t14 -32.5q0 -20 -13.5 -33.5t-33.5 -13.5q-19 0 -32.5 14t-13.5 33t13.5 32.5t32.5 13.5zM209 798q19 0 33 -13.5t14 -32.5q0 -20 -14 -33.5t-33 -13.5t-32.5 14
t-13.5 33t13.5 32.5t32.5 13.5z" />
    <glyph glyph-name="Aring" unicode="&#xc5;" horiz-adv-x="285" 
d="M171 667l119 -667h-82l-40 226h-98l-41 -226h-36l123 667h55zM121 506l-44 -248h85zM142 838q34 0 57.5 -23.5t23.5 -57.5t-23.5 -57.5t-57.5 -23.5q-33 0 -56.5 24t-23.5 58q0 32 24 56t56 24zM142 799q-18 0 -30.5 -12.5t-12.5 -30.5t12.5 -31t30.5 -13t30.5 12.5
t12.5 31.5q0 18 -12.5 30.5t-30.5 12.5z" />
    <glyph glyph-name="AE" unicode="&#xc6;" horiz-adv-x="435" 
d="M432 0h-245v219h-97l-64 -219h-38l190 667h233v-35h-144v-260h120v-31h-120v-309h165v-32zM187 573l-90 -324h90v324z" />
    <glyph glyph-name="Ccedilla" unicode="&#xc7;" horiz-adv-x="300" 
d="M178 -6l-14 -37q24 0 39 -5q17 -6 29 -23.5t12 -37.5q0 -31 -25 -54t-60 -23q-14 0 -42 5v26l6 -1q13 -3 22 -3q16 0 27.5 14t11.5 33q0 24 -13 33.5t-45 9.5l22 64q-65 9 -96 63.5t-31 159.5v204q0 135 46 193q45 59 112 59q37 0 63.5 -22.5t35.5 -61.5q3 -20 3 -42
l-39 -21v28q0 40 -17 65t-43 25t-45 -24q-20 -27 -26.5 -64.5t-6.5 -120.5v-230q0 -69 7.5 -105t27.5 -59q17 -19 42 -19q29 0 49 30t20 76q0 9 -3 37l41 -11l2 -28q0 -35 -16 -67.5t-42 -49.5q-21 -13 -54 -16z" />
    <glyph glyph-name="Egrave" unicode="&#xc8;" horiz-adv-x="283" 
d="M258 667v-32h-143v-263h120v-30h-120v-310h165v-32h-246v667h224zM141 694l-120 123h76l79 -123h-35z" />
    <glyph glyph-name="Eacute" unicode="&#xc9;" horiz-adv-x="283" 
d="M258 667v-32h-143v-263h120v-30h-120v-310h165v-32h-246v667h224zM186 817h76l-120 -123h-35z" />
    <glyph glyph-name="Ecircumflex" unicode="&#xca;" horiz-adv-x="283" 
d="M259 667v-32h-144v-263h120v-30h-120v-310h165v-32h-246v667h225zM34 696l82 123h50l84 -123h-75l-49 71l-49 -71h-43z" />
    <glyph glyph-name="Edieresis" unicode="&#xcb;" horiz-adv-x="283" 
d="M258 667v-32h-143v-263h120v-30h-120v-310h165v-32h-246v667h224zM73 798q19 0 33 -13.5t14 -32.5q0 -20 -14 -33.5t-33 -13.5t-32.5 14t-13.5 33t13.5 32.5t32.5 13.5zM208 798q19 0 33 -13.5t14 -32.5q0 -20 -13.5 -33.5t-33.5 -13.5q-19 0 -32.5 14t-13.5 33
t13.5 32.5t32.5 13.5z" />
    <glyph glyph-name="Igrave" unicode="&#xcc;" horiz-adv-x="152" 
d="M116 667v-667h-80v667h80zM75 694l-120 123h76l79 -123h-35z" />
    <glyph glyph-name="Iacute" unicode="&#xcd;" horiz-adv-x="152" 
d="M116 667v-667h-80v667h80zM121 817h76l-120 -123h-35z" />
    <glyph glyph-name="Icircumflex" unicode="&#xce;" horiz-adv-x="152" 
d="M116 667v-667h-80v667h80zM-32 696l82 123h50l84 -123h-75l-49 71l-49 -71h-43z" />
    <glyph glyph-name="Idieresis" unicode="&#xcf;" horiz-adv-x="152" 
d="M116 667v-667h-80v667h80zM22 790q19 0 32 -13t13 -31q0 -19 -13 -32t-32 -13q-18 0 -31 13t-13 32q0 18 13 31t31 13zM129 790q19 0 32 -13t13 -31q0 -19 -13 -32t-32 -13q-18 0 -31 13t-13 32q0 18 13 31t31 13z" />
    <glyph glyph-name="Eth" unicode="&#xd0;" horiz-adv-x="350" 
d="M37 327h-34v38h34v302h109q78 0 122 -41q34 -31 47.5 -73t13.5 -118v-204q0 -75 -13.5 -117t-48.5 -74q-44 -40 -122 -40h-108v327zM116 327v-297h16q64 0 93 55q12 21 16 49.5t4 93.5v211q0 72 -4.5 99.5t-18.5 50.5q-31 48 -90 48h-16v-272h71v-38h-71z" />
    <glyph glyph-name="Ntilde" unicode="&#xd1;" horiz-adv-x="318" 
d="M285 667v-667h-59l-159 509v-509h-35v667h69l151 -491v491h33zM67 704h-35q10 55 25 72q19 22 42 22q21 0 74 -25q33 -15 45 -15q28 0 32 42h35q-8 -51 -19 -68q-18 -28 -51 -28q-25 0 -75 23q-32 16 -47 16q-19 0 -26 -39z" />
    <glyph glyph-name="Ograve" unicode="&#xd2;" horiz-adv-x="345" 
d="M21 231v205q0 77 7.5 114t29.5 69q38 55 115 55t115 -55q22 -32 29.5 -69.5t7.5 -113.5v-205q0 -79 -7.5 -115t-29.5 -68q-37 -55 -115 -55q-77 0 -115 55q-22 32 -29.5 69t-7.5 114zM240 231v205q0 116 -9 152q-15 60 -58 60q-36 0 -52 -42q-15 -36 -15 -170v-205
q0 -116 9 -153q15 -59 58 -59q46 0 60 68q7 33 7 144zM172 694l-120 123h76l79 -123h-35z" />
    <glyph glyph-name="Oacute" unicode="&#xd3;" horiz-adv-x="345" 
d="M21 231v205q0 77 7.5 114t29.5 69q38 55 115 55t115 -55q22 -32 29.5 -69.5t7.5 -113.5v-205q0 -79 -7.5 -115t-29.5 -68q-37 -55 -115 -55q-77 0 -115 55q-22 32 -29.5 69t-7.5 114zM240 231v205q0 116 -9 152q-15 60 -58 60q-36 0 -52 -42q-15 -36 -15 -170v-205
q0 -116 9 -153q15 -59 58 -59q46 0 60 68q7 33 7 144zM218 817h75l-120 -123h-34z" />
    <glyph glyph-name="Ocircumflex" unicode="&#xd4;" horiz-adv-x="345" 
d="M21 231v205q0 77 7.5 114t29.5 69q38 55 115 55t115 -55q22 -32 29.5 -69.5t7.5 -113.5v-205q0 -79 -7.5 -115t-29.5 -68q-37 -55 -115 -55q-77 0 -115 55q-22 32 -29.5 69t-7.5 114zM240 231v205q0 116 -9 152q-15 60 -58 60q-36 0 -52 -42q-15 -36 -15 -170v-205
q0 -116 9 -153q15 -59 58 -59q46 0 60 68q7 33 7 144zM65 696l82 123h50l84 -123h-75l-49 71l-49 -71h-43z" />
    <glyph glyph-name="Otilde" unicode="&#xd5;" horiz-adv-x="345" 
d="M21 231v205q0 77 7.5 114t29.5 69q38 55 115 55t115 -55q22 -32 29.5 -69.5t7.5 -113.5v-205q0 -79 -7.5 -115t-29.5 -68q-37 -55 -115 -55q-77 0 -115 55q-22 32 -29.5 69t-7.5 114zM240 231v205q0 116 -9 152q-15 60 -58 60q-36 0 -52 -42q-15 -36 -15 -170v-205
q0 -116 9 -153q15 -59 58 -59q46 0 60 68q7 33 7 144zM81 704h-35q10 55 25 72q19 22 43 22q20 0 73 -25q33 -15 45 -15q28 0 32 42h35q-8 -51 -19 -68q-18 -28 -51 -28q-25 0 -75 23q-32 16 -47 16q-19 0 -26 -39z" />
    <glyph glyph-name="Odieresis" unicode="&#xd6;" horiz-adv-x="345" 
d="M21 231v205q0 77 7.5 114t29.5 69q38 55 115 55t115 -55q22 -32 29.5 -69.5t7.5 -113.5v-205q0 -79 -7.5 -115t-29.5 -68q-37 -55 -115 -55q-77 0 -115 55q-22 32 -29.5 69t-7.5 114zM240 231v205q0 116 -9 152q-15 60 -58 60q-36 0 -52 -42q-15 -36 -15 -170v-205
q0 -116 9 -153q15 -59 58 -59q46 0 60 68q7 33 7 144zM104 798q19 0 33 -13.5t14 -32.5q0 -20 -13.5 -33.5t-33.5 -13.5q-19 0 -32.5 14t-13.5 33t13.5 32.5t32.5 13.5zM240 798q19 0 33 -13.5t14 -32.5q0 -20 -13.5 -33.5t-33.5 -13.5q-19 0 -32.5 14t-13.5 33t13.5 32.5
t32.5 13.5z" />
    <glyph glyph-name="multiply" unicode="&#xd7;" horiz-adv-x="312" 
d="M62 454l94 -95l94 95l35 -35l-94 -95l94 -94l-35 -35l-94 95l-94 -95l-35 35l94 94l-94 95z" />
    <glyph glyph-name="Oslash" unicode="&#xd8;" horiz-adv-x="345" 
d="M15 4l30 70q-13 29 -17.5 60t-4.5 97v205q0 77 7.5 114.5t29.5 69.5q38 55 114 55q63 0 103 -41l22 53l35 -16l-31 -75q14 -29 18.5 -61.5t4.5 -98.5v-205q0 -79 -7.5 -115t-29.5 -68q-38 -55 -114 -55q-64 0 -105 42l-20 -48zM108 226l131 316q-5 57 -20 81.5t-45 24.5
q-35 0 -51 -42q-15 -36 -15 -170v-210zM241 448l-131 -317q7 -112 65 -112q45 0 59 68q7 33 7 144v217z" />
    <glyph glyph-name="Ugrave" unicode="&#xd9;" horiz-adv-x="331" 
d="M178 694l-120 123h75l79 -123h-34zM30 667h80v-534q0 -39 2.5 -52.5t13.5 -29.5q20 -29 64 -29q43 0 63 29q11 16 13.5 29.5t2.5 52.5v534h33v-534q0 -63 -18 -92q-28 -48 -119 -48q-78 0 -110 39q-25 32 -25 101v534z" />
    <glyph glyph-name="Uacute" unicode="&#xda;" horiz-adv-x="331" 
d="M224 817h75l-120 -123h-35zM30 667h80v-534q0 -39 2.5 -52.5t13.5 -29.5q20 -29 64 -29q43 0 63 29q11 16 13.5 29.5t2.5 52.5v534h33v-534q0 -63 -18 -92q-28 -48 -119 -48q-78 0 -110 39q-25 32 -25 101v534z" />
    <glyph glyph-name="Ucircumflex" unicode="&#xdb;" horiz-adv-x="331" 
d="M71 696l82 123h49l84 -123h-74l-50 71l-49 -71h-42zM30 667h80v-534q0 -39 2.5 -52.5t13.5 -29.5q20 -29 64 -29q43 0 63 29q11 16 13.5 29.5t2.5 52.5v534h33v-534q0 -63 -18 -92q-28 -48 -119 -48q-78 0 -110 39q-25 32 -25 101v534z" />
    <glyph glyph-name="Udieresis" unicode="&#xdc;" horiz-adv-x="331" 
d="M30 667h80v-534q0 -39 2.5 -52.5t13.5 -29.5q20 -29 64 -29q43 0 63 29q11 16 13.5 29.5t2.5 52.5v534h33v-534q0 -63 -18 -92q-28 -48 -119 -48q-78 0 -110 39q-25 32 -25 101v534zM110 798q19 0 33 -13.5t14 -32.5q0 -20 -13.5 -33.5t-33.5 -13.5q-19 0 -32.5 14
t-13.5 33t13.5 32.5t32.5 13.5zM245 798q19 0 33 -13.5t14 -32.5q0 -20 -14 -33.5t-33 -13.5t-32.5 14t-13.5 33t13.5 32.5t32.5 13.5z" />
    <glyph glyph-name="Yacute" unicode="&#xdd;" horiz-adv-x="264" 
d="M276 667l-91 -354v-313h-80v306l-115 361h86l90 -292l75 292h35zM191 817h75l-120 -123h-34z" />
    <glyph glyph-name="Thorn" unicode="&#xde;" horiz-adv-x="321" 
d="M115 520h27q91 0 131 -34t40 -111v-82q0 -79 -39 -112t-132 -33h-27v-148h-81v667h81v-147zM115 179h12q58 0 82 26q19 22 19 93v88q0 56 -22.5 79t-78.5 23h-12v-309z" />
    <glyph glyph-name="germandbls" unicode="&#xdf;" horiz-adv-x="594" 
d="M264 551l-44 -17q6 32 6 44q0 28 -22 48.5t-52 20.5q-33 0 -52 -23t-19 -63q0 -62 48 -126l84 -110q37 -49 52.5 -88.5t15.5 -88.5q0 -70 -37.5 -112.5t-99.5 -42.5q-59 0 -94 29.5t-35 78.5q0 13 2 32l48 18q-10 -41 -10 -55q0 -32 24.5 -55t58.5 -23q73 0 73 101
q0 30 -12.5 56t-51.5 73l-84 106q-48 62 -48 158q0 73 37 117.5t99 44.5q34 0 61.5 -15t40.5 -41q8 -18 11 -67zM561 551l-44 -17q6 32 6 44q0 28 -22 48.5t-51 20.5q-33 0 -52 -23t-19 -63q0 -65 47 -126l84 -110q37 -49 52.5 -88.5t15.5 -88.5q0 -70 -37.5 -112.5
t-99.5 -42.5q-59 0 -94 29.5t-35 78.5q0 12 2 32l48 18q-10 -42 -10 -55q0 -32 24.5 -55t58.5 -23q73 0 73 101q0 29 -12.5 55t-50.5 74l-84 106q-49 62 -49 158q0 73 37 117.5t99 44.5q34 0 61.5 -15t40.5 -41q8 -18 11 -67z" />
    <glyph glyph-name="agrave" unicode="&#xe0;" horiz-adv-x="285" 
d="M171 667l119 -667h-82l-40 226h-98l-41 -226h-36l123 667h55zM121 506l-44 -248h85zM142 694l-120 123h75l79 -123h-34z" />
    <glyph glyph-name="aacute" unicode="&#xe1;" horiz-adv-x="285" 
d="M171 667l119 -667h-82l-40 226h-98l-41 -226h-36l123 667h55zM121 506l-44 -248h85zM188 817h75l-120 -123h-34z" />
    <glyph glyph-name="acircumflex" unicode="&#xe2;" horiz-adv-x="285" 
d="M171 667l119 -667h-82l-40 226h-98l-41 -226h-36l123 667h55zM121 506l-44 -248h85zM35 696l82 123h49l84 -123h-74l-50 71l-48 -71h-43z" />
    <glyph glyph-name="atilde" unicode="&#xe3;" horiz-adv-x="285" 
d="M171 667l119 -667h-82l-40 226h-98l-41 -226h-36l123 667h55zM121 506l-44 -248h85zM51 704h-35q8 53 24 72q20 22 43 22q20 0 74 -25q33 -15 45 -15q28 0 32 42h35q-8 -51 -19 -68q-18 -28 -51 -28q-27 0 -75 23q-32 16 -48 16q-18 0 -25 -39z" />
    <glyph glyph-name="adieresis" unicode="&#xe4;" horiz-adv-x="285" 
d="M171 667l119 -667h-82l-40 226h-98l-41 -226h-36l123 667h55zM121 506l-44 -248h85zM74 798q19 0 33 -13.5t14 -32.5q0 -20 -13.5 -33.5t-33.5 -13.5q-19 0 -32.5 14t-13.5 33t13.5 32.5t32.5 13.5zM209 798q19 0 33 -13.5t14 -32.5q0 -20 -14 -33.5t-33 -13.5t-32.5 14
t-13.5 33t13.5 32.5t32.5 13.5z" />
    <glyph glyph-name="aring" unicode="&#xe5;" horiz-adv-x="285" 
d="M171 667l119 -667h-82l-40 226h-98l-41 -226h-36l123 667h55zM121 506l-44 -248h85zM142 838q34 0 57.5 -23.5t23.5 -57.5t-23.5 -57.5t-57.5 -23.5q-33 0 -56.5 24t-23.5 58q0 32 24 56t56 24zM142 799q-18 0 -30.5 -12.5t-12.5 -30.5t12.5 -31t30.5 -13t30.5 12.5
t12.5 31.5q0 18 -12.5 30.5t-30.5 12.5z" />
    <glyph glyph-name="ae" unicode="&#xe6;" horiz-adv-x="435" 
d="M432 0h-245v219h-97l-64 -219h-38l190 667h233v-35h-144v-260h120v-31h-120v-309h165v-32zM187 573l-90 -324h90v324z" />
    <glyph glyph-name="ccedilla" unicode="&#xe7;" horiz-adv-x="300" 
d="M178 -6l-14 -37q24 0 39 -5q17 -6 29 -23.5t12 -37.5q0 -31 -25 -54t-60 -23q-14 0 -42 5v26l6 -1q13 -3 22 -3q16 0 27.5 14t11.5 33q0 24 -13 33.5t-45 9.5l22 64q-65 9 -96 63.5t-31 159.5v204q0 135 46 193q45 59 112 59q37 0 63.5 -22.5t35.5 -61.5q3 -20 3 -42
l-39 -21v28q0 40 -17 65t-43 25t-45 -24q-20 -27 -26.5 -64.5t-6.5 -120.5v-230q0 -69 7.5 -105t27.5 -59q17 -19 42 -19q29 0 49 30t20 76q0 9 -3 37l41 -11l2 -28q0 -35 -16 -67.5t-42 -49.5q-21 -13 -54 -16z" />
    <glyph glyph-name="egrave" unicode="&#xe8;" horiz-adv-x="283" 
d="M258 667v-32h-143v-263h120v-30h-120v-310h165v-32h-246v667h224zM141 694l-120 123h76l79 -123h-35z" />
    <glyph glyph-name="eacute" unicode="&#xe9;" horiz-adv-x="283" 
d="M258 667v-32h-143v-263h120v-30h-120v-310h165v-32h-246v667h224zM186 817h76l-120 -123h-35z" />
    <glyph glyph-name="ecircumflex" unicode="&#xea;" horiz-adv-x="283" 
d="M259 667v-32h-144v-263h120v-30h-120v-310h165v-32h-246v667h225zM34 696l82 123h50l84 -123h-75l-49 71l-49 -71h-43z" />
    <glyph glyph-name="edieresis" unicode="&#xeb;" horiz-adv-x="283" 
d="M258 667v-32h-143v-263h120v-30h-120v-310h165v-32h-246v667h224zM73 798q19 0 33 -13.5t14 -32.5q0 -20 -14 -33.5t-33 -13.5t-32.5 14t-13.5 33t13.5 32.5t32.5 13.5zM208 798q19 0 33 -13.5t14 -32.5q0 -20 -13.5 -33.5t-33.5 -13.5q-19 0 -32.5 14t-13.5 33
t13.5 32.5t32.5 13.5z" />
    <glyph glyph-name="igrave" unicode="&#xec;" horiz-adv-x="152" 
d="M116 667v-667h-80v667h80zM75 694l-120 123h76l79 -123h-35z" />
    <glyph glyph-name="iacute" unicode="&#xed;" horiz-adv-x="152" 
d="M116 667v-667h-80v667h80zM121 817h76l-120 -123h-35z" />
    <glyph glyph-name="icircumflex" unicode="&#xee;" horiz-adv-x="152" 
d="M116 667v-667h-80v667h80zM-32 696l82 123h50l84 -123h-75l-49 71l-49 -71h-43z" />
    <glyph glyph-name="idieresis" unicode="&#xef;" horiz-adv-x="152" 
d="M116 667v-667h-80v667h80zM22 790q19 0 32 -13t13 -31q0 -19 -13 -32t-32 -13q-18 0 -31 13t-13 32q0 18 13 31t31 13zM129 790q19 0 32 -13t13 -31q0 -19 -13 -32t-32 -13q-18 0 -31 13t-13 32q0 18 13 31t31 13z" />
    <glyph glyph-name="eth" unicode="&#xf0;" horiz-adv-x="350" 
d="M37 327h-34v38h34v302h109q78 0 122 -41q34 -31 47.5 -73t13.5 -118v-204q0 -75 -13.5 -117t-48.5 -74q-44 -40 -122 -40h-108v327zM116 327v-297h16q64 0 93 55q12 21 16 49.5t4 93.5v211q0 72 -4.5 99.5t-18.5 50.5q-31 48 -90 48h-16v-272h71v-38h-71z" />
    <glyph glyph-name="ntilde" unicode="&#xf1;" horiz-adv-x="318" 
d="M285 667v-667h-59l-159 509v-509h-35v667h69l151 -491v491h33zM67 704h-35q10 55 25 72q19 22 42 22q21 0 74 -25q33 -15 45 -15q28 0 32 42h35q-8 -51 -19 -68q-18 -28 -51 -28q-25 0 -75 23q-32 16 -47 16q-19 0 -26 -39z" />
    <glyph glyph-name="ograve" unicode="&#xf2;" horiz-adv-x="345" 
d="M21 231v205q0 77 7.5 114t29.5 69q38 55 115 55t115 -55q22 -32 29.5 -69.5t7.5 -113.5v-205q0 -79 -7.5 -115t-29.5 -68q-37 -55 -115 -55q-77 0 -115 55q-22 32 -29.5 69t-7.5 114zM240 231v205q0 116 -9 152q-15 60 -58 60q-36 0 -52 -42q-15 -36 -15 -170v-205
q0 -116 9 -153q15 -59 58 -59q46 0 60 68q7 33 7 144zM172 694l-120 123h76l79 -123h-35z" />
    <glyph glyph-name="oacute" unicode="&#xf3;" horiz-adv-x="345" 
d="M21 231v205q0 77 7.5 114t29.5 69q38 55 115 55t115 -55q22 -32 29.5 -69.5t7.5 -113.5v-205q0 -79 -7.5 -115t-29.5 -68q-37 -55 -115 -55q-77 0 -115 55q-22 32 -29.5 69t-7.5 114zM240 231v205q0 116 -9 152q-15 60 -58 60q-36 0 -52 -42q-15 -36 -15 -170v-205
q0 -116 9 -153q15 -59 58 -59q46 0 60 68q7 33 7 144zM218 817h75l-120 -123h-34z" />
    <glyph glyph-name="ocircumflex" unicode="&#xf4;" horiz-adv-x="345" 
d="M21 231v205q0 77 7.5 114t29.5 69q38 55 115 55t115 -55q22 -32 29.5 -69.5t7.5 -113.5v-205q0 -79 -7.5 -115t-29.5 -68q-37 -55 -115 -55q-77 0 -115 55q-22 32 -29.5 69t-7.5 114zM240 231v205q0 116 -9 152q-15 60 -58 60q-36 0 -52 -42q-15 -36 -15 -170v-205
q0 -116 9 -153q15 -59 58 -59q46 0 60 68q7 33 7 144zM65 696l82 123h50l84 -123h-75l-49 71l-49 -71h-43z" />
    <glyph glyph-name="otilde" unicode="&#xf5;" horiz-adv-x="345" 
d="M21 231v205q0 77 7.5 114t29.5 69q38 55 115 55t115 -55q22 -32 29.5 -69.5t7.5 -113.5v-205q0 -79 -7.5 -115t-29.5 -68q-37 -55 -115 -55q-77 0 -115 55q-22 32 -29.5 69t-7.5 114zM240 231v205q0 116 -9 152q-15 60 -58 60q-36 0 -52 -42q-15 -36 -15 -170v-205
q0 -116 9 -153q15 -59 58 -59q46 0 60 68q7 33 7 144zM81 704h-35q10 55 25 72q19 22 43 22q20 0 73 -25q33 -15 45 -15q28 0 32 42h35q-8 -51 -19 -68q-18 -28 -51 -28q-25 0 -75 23q-32 16 -47 16q-19 0 -26 -39z" />
    <glyph glyph-name="odieresis" unicode="&#xf6;" horiz-adv-x="345" 
d="M21 231v205q0 77 7.5 114t29.5 69q38 55 115 55t115 -55q22 -32 29.5 -69.5t7.5 -113.5v-205q0 -79 -7.5 -115t-29.5 -68q-37 -55 -115 -55q-77 0 -115 55q-22 32 -29.5 69t-7.5 114zM240 231v205q0 116 -9 152q-15 60 -58 60q-36 0 -52 -42q-15 -36 -15 -170v-205
q0 -116 9 -153q15 -59 58 -59q46 0 60 68q7 33 7 144zM104 798q19 0 33 -13.5t14 -32.5q0 -20 -13.5 -33.5t-33.5 -13.5q-19 0 -32.5 14t-13.5 33t13.5 32.5t32.5 13.5zM240 798q19 0 33 -13.5t14 -32.5q0 -20 -13.5 -33.5t-33.5 -13.5q-19 0 -32.5 14t-13.5 33t13.5 32.5
t32.5 13.5z" />
    <glyph glyph-name="divide" unicode="&#xf7;" horiz-adv-x="312" 
d="M300 349v-49h-289v49h289zM156 266q21 0 35.5 -14.5t14.5 -35.5t-14.5 -35.5t-35.5 -14.5t-35.5 14.5t-14.5 36.5q0 20 15 34.5t35 14.5zM156 482q21 0 35.5 -14.5t14.5 -35.5t-14.5 -35.5t-35.5 -14.5t-35.5 14.5t-14.5 36.5q0 20 15 34.5t35 14.5z" />
    <glyph glyph-name="oslash" unicode="&#xf8;" horiz-adv-x="345" 
d="M15 4l30 70q-13 29 -17.5 60t-4.5 97v205q0 77 7.5 114.5t29.5 69.5q38 55 114 55q63 0 103 -41l22 53l35 -16l-31 -75q14 -29 18.5 -61.5t4.5 -98.5v-205q0 -79 -7.5 -115t-29.5 -68q-38 -55 -114 -55q-64 0 -105 42l-20 -48zM108 226l131 316q-5 57 -20 81.5t-45 24.5
q-35 0 -51 -42q-15 -36 -15 -170v-210zM241 448l-131 -317q7 -112 65 -112q45 0 59 68q7 33 7 144v217z" />
    <glyph glyph-name="ugrave" unicode="&#xf9;" horiz-adv-x="331" 
d="M178 694l-120 123h75l79 -123h-34zM30 667h80v-534q0 -39 2.5 -52.5t13.5 -29.5q20 -29 64 -29q43 0 63 29q11 16 13.5 29.5t2.5 52.5v534h33v-534q0 -63 -18 -92q-28 -48 -119 -48q-78 0 -110 39q-25 32 -25 101v534z" />
    <glyph glyph-name="uacute" unicode="&#xfa;" horiz-adv-x="331" 
d="M224 817h75l-120 -123h-35zM30 667h80v-534q0 -39 2.5 -52.5t13.5 -29.5q20 -29 64 -29q43 0 63 29q11 16 13.5 29.5t2.5 52.5v534h33v-534q0 -63 -18 -92q-28 -48 -119 -48q-78 0 -110 39q-25 32 -25 101v534z" />
    <glyph glyph-name="ucircumflex" unicode="&#xfb;" horiz-adv-x="331" 
d="M71 696l82 123h49l84 -123h-74l-50 71l-49 -71h-42zM30 667h80v-534q0 -39 2.5 -52.5t13.5 -29.5q20 -29 64 -29q43 0 63 29q11 16 13.5 29.5t2.5 52.5v534h33v-534q0 -63 -18 -92q-28 -48 -119 -48q-78 0 -110 39q-25 32 -25 101v534z" />
    <glyph glyph-name="udieresis" unicode="&#xfc;" horiz-adv-x="331" 
d="M30 667h80v-534q0 -39 2.5 -52.5t13.5 -29.5q20 -29 64 -29q43 0 63 29q11 16 13.5 29.5t2.5 52.5v534h33v-534q0 -63 -18 -92q-28 -48 -119 -48q-78 0 -110 39q-25 32 -25 101v534zM110 798q19 0 33 -13.5t14 -32.5q0 -20 -13.5 -33.5t-33.5 -13.5q-19 0 -32.5 14
t-13.5 33t13.5 32.5t32.5 13.5zM245 798q19 0 33 -13.5t14 -32.5q0 -20 -14 -33.5t-33 -13.5t-32.5 14t-13.5 33t13.5 32.5t32.5 13.5z" />
    <glyph glyph-name="yacute" unicode="&#xfd;" horiz-adv-x="264" 
d="M276 667l-91 -354v-313h-80v306l-115 361h86l90 -292l75 292h35zM191 817h75l-120 -123h-34z" />
    <glyph glyph-name="thorn" unicode="&#xfe;" horiz-adv-x="321" 
d="M115 520h27q91 0 131 -34t40 -111v-82q0 -79 -39 -112t-132 -33h-27v-148h-81v667h81v-147zM115 179h12q58 0 82 26q19 22 19 93v88q0 56 -22.5 79t-78.5 23h-12v-309z" />
    <glyph glyph-name="ydieresis" unicode="&#xff;" horiz-adv-x="264" 
d="M276 667l-91 -354v-313h-80v306l-115 361h86l90 -292l75 292h35zM77 798q19 0 33 -13.5t14 -32.5q0 -20 -14 -33.5t-33 -13.5t-32.5 14t-13.5 33t13.5 32.5t32.5 13.5zM212 798q19 0 33 -13.5t14 -32.5q0 -20 -13.5 -33.5t-33.5 -13.5q-19 0 -32.5 14t-13.5 33t13.5 32.5
t32.5 13.5z" />
    <glyph glyph-name="Amacron" unicode="&#x100;" horiz-adv-x="285" 
d="M171 667l119 -667h-82l-40 226h-98l-41 -226h-36l123 667h55zM121 506l-44 -248h85zM247 776v-45h-209v45h209z" />
    <glyph glyph-name="amacron" unicode="&#x101;" horiz-adv-x="285" 
d="M171 667l119 -667h-82l-40 226h-98l-41 -226h-36l123 667h55zM121 506l-44 -248h85zM247 776v-45h-209v45h209z" />
    <glyph glyph-name="Abreve" unicode="&#x102;" horiz-adv-x="285" 
d="M171 667l119 -667h-82l-40 226h-98l-41 -226h-36l123 667h55zM121 506l-44 -248h85zM39 822h30q8 -27 25.5 -39t48.5 -12t48 12t25 39h30q-17 -109 -104 -109q-86 0 -103 109z" />
    <glyph glyph-name="abreve" unicode="&#x103;" horiz-adv-x="285" 
d="M171 667l119 -667h-82l-40 226h-98l-41 -226h-36l123 667h55zM121 506l-44 -248h85zM39 822h30q8 -27 25.5 -39t48.5 -12t48 12t25 39h30q-17 -109 -104 -109q-86 0 -103 109z" />
    <glyph glyph-name="Aogonek" unicode="&#x104;" horiz-adv-x="285" 
d="M171 667l119 -667q-71 -16 -71 -69q0 -45 42 -45q1 0 29 2v-24q-28 -7 -49 -7q-34 0 -57 18.5t-23 45.5q0 53 69 79h-22l-40 226h-97l-42 -226h-36l123 667h55zM121 506l-43 -248h84z" />
    <glyph glyph-name="aogonek" unicode="&#x105;" horiz-adv-x="285" 
d="M171 667l119 -667q-71 -16 -71 -69q0 -45 42 -45q1 0 29 2v-24q-28 -7 -49 -7q-34 0 -57 18.5t-23 45.5q0 53 69 79h-22l-40 226h-97l-42 -226h-36l123 667h55zM121 506l-43 -248h84z" />
    <glyph glyph-name="Cacute" unicode="&#x106;" horiz-adv-x="301" 
d="M247 166l41 -12q1 -14 1 -27q0 -54 -34 -96q-30 -38 -89 -38q-145 0 -145 225v204q0 135 46 193q45 59 112 59q37 0 63.5 -23t35.5 -61q3 -20 3 -42l-39 -21v28q0 40 -17 65t-43 25t-45 -24q-20 -27 -26.5 -64.5t-6.5 -120.5v-231q0 -69 7.5 -104.5t27.5 -58.5
q16 -19 41 -19q30 0 49.5 30t19.5 76q0 15 -2 37zM222 817h76l-121 -123h-34z" />
    <glyph glyph-name="cacute" unicode="&#x107;" horiz-adv-x="301" 
d="M247 166l41 -12q1 -14 1 -27q0 -54 -34 -96q-30 -38 -89 -38q-145 0 -145 225v204q0 135 46 193q45 59 112 59q37 0 63.5 -23t35.5 -61q3 -20 3 -42l-39 -21v28q0 40 -17 65t-43 25t-45 -24q-20 -27 -26.5 -64.5t-6.5 -120.5v-231q0 -69 7.5 -104.5t27.5 -58.5
q16 -19 41 -19q30 0 49.5 30t19.5 76q0 15 -2 37zM222 817h76l-121 -123h-34z" />
    <glyph glyph-name="Ccaron" unicode="&#x10c;" horiz-adv-x="300" 
d="M247 166l41 -12q1 -14 1 -27q0 -54 -34 -96q-30 -38 -89 -38q-145 0 -145 225v204q0 135 46 193q45 59 112 59q37 0 63.5 -23t35.5 -61q3 -20 3 -42l-39 -21v28q0 40 -17 65t-43 25t-45 -24q-20 -27 -26.5 -64.5t-6.5 -120.5v-231q0 -69 7.5 -104.5t27.5 -58.5
q16 -19 41 -19q30 0 49.5 30t19.5 76q0 15 -2 37zM278 819l-82 -123h-50l-84 123h75l49 -71l49 71h43z" />
    <glyph glyph-name="ccaron" unicode="&#x10d;" horiz-adv-x="300" 
d="M247 166l41 -12q1 -14 1 -27q0 -54 -34 -96q-30 -38 -89 -38q-145 0 -145 225v204q0 135 46 193q45 59 112 59q37 0 63.5 -23t35.5 -61q3 -20 3 -42l-39 -21v28q0 40 -17 65t-43 25t-45 -24q-20 -27 -26.5 -64.5t-6.5 -120.5v-231q0 -69 7.5 -104.5t27.5 -58.5
q16 -19 41 -19q30 0 49.5 30t19.5 76q0 15 -2 37zM278 819l-82 -123h-50l-84 123h75l49 -71l49 71h43z" />
    <glyph glyph-name="Dcaron" unicode="&#x10e;" horiz-adv-x="347" 
d="M34 0v667h109q77 0 121 -41q34 -31 47.5 -73t13.5 -117v-205q0 -75 -13.5 -117t-48.5 -74q-44 -40 -121 -40h-108zM113 30h16q63 0 93 55q11 22 15 50t4 93v211q0 72 -4.5 99.5t-18.5 50.5q-31 48 -89 48h-16v-607zM259 819l-82 -123h-49l-84 123h74l49 -71l49 71h43z
" />
    <glyph glyph-name="dcaron" unicode="&#x10f;" horiz-adv-x="347" 
d="M34 0v667h109q77 0 121 -41q34 -31 47.5 -73t13.5 -117v-205q0 -75 -13.5 -117t-48.5 -74q-44 -40 -121 -40h-108zM113 30h16q63 0 93 55q11 22 15 50t4 93v211q0 72 -4.5 99.5t-18.5 50.5q-31 48 -89 48h-16v-607zM259 819l-82 -123h-49l-84 123h74l49 -71l49 71h43z
" />
    <glyph glyph-name="Dcroat" unicode="&#x110;" horiz-adv-x="350" 
d="M37 327h-34v38h34v302h109q78 0 122 -41q34 -31 47.5 -73t13.5 -118v-204q0 -75 -13.5 -117t-48.5 -74q-44 -40 -122 -40h-108v327zM116 327v-297h16q64 0 93 55q12 21 16 49.5t4 93.5v211q0 72 -4.5 99.5t-18.5 50.5q-31 48 -90 48h-16v-272h71v-38h-71z" />
    <glyph glyph-name="dcroat" unicode="&#x111;" horiz-adv-x="350" 
d="M37 327h-34v38h34v302h109q78 0 122 -41q34 -31 47.5 -73t13.5 -118v-204q0 -75 -13.5 -117t-48.5 -74q-44 -40 -122 -40h-108v327zM116 327v-297h16q64 0 93 55q12 21 16 49.5t4 93.5v211q0 72 -4.5 99.5t-18.5 50.5q-31 48 -90 48h-16v-272h71v-38h-71z" />
    <glyph glyph-name="Emacron" unicode="&#x112;" horiz-adv-x="283" 
d="M258 667v-32h-143v-263h120v-30h-120v-310h165v-32h-246v667h224zM246 776v-45h-209v45h209z" />
    <glyph glyph-name="emacron" unicode="&#x113;" horiz-adv-x="283" 
d="M258 667v-32h-143v-263h120v-30h-120v-310h165v-32h-246v667h224zM246 776v-45h-209v45h209z" />
    <glyph glyph-name="Ebreve" unicode="&#x114;" horiz-adv-x="283" 
d="M258 667v-32h-143v-263h120v-30h-120v-310h165v-32h-246v667h224zM38 822h30q8 -27 25 -39t48 -12t48.5 12t25.5 39h29q-15 -109 -103 -109q-86 0 -103 109z" />
    <glyph glyph-name="ebreve" unicode="&#x115;" horiz-adv-x="283" 
d="M258 667v-32h-143v-263h120v-30h-120v-310h165v-32h-246v667h224zM38 822h30q8 -27 25 -39t48 -12t48.5 12t25.5 39h29q-15 -109 -103 -109q-86 0 -103 109z" />
    <glyph glyph-name="Edotaccent" unicode="&#x116;" horiz-adv-x="283" 
d="M258 667v-32h-143v-263h120v-30h-120v-310h165v-32h-246v667h224zM141 798q19 0 33 -13.5t14 -32.5q0 -20 -14 -33.5t-33 -13.5t-32.5 14t-13.5 33t13.5 32.5t32.5 13.5z" />
    <glyph glyph-name="edotaccent" unicode="&#x117;" horiz-adv-x="283" 
d="M258 667v-32h-143v-263h120v-30h-120v-310h165v-32h-246v667h224zM141 798q19 0 33 -13.5t14 -32.5q0 -20 -14 -33.5t-33 -13.5t-32.5 14t-13.5 33t13.5 32.5t32.5 13.5z" />
    <glyph glyph-name="Eogonek" unicode="&#x118;" horiz-adv-x="283" 
d="M280 32v-32q-71 -16 -71 -69q0 -45 42 -45q14 0 29 2v-24q-29 -7 -49 -7q-35 0 -57.5 18t-22.5 46q0 53 69 79h-186v667h224v-32h-143v-263h120v-30h-120v-310h165z" />
    <glyph glyph-name="eogonek" unicode="&#x119;" horiz-adv-x="283" 
d="M280 32v-32q-71 -16 -71 -69q0 -45 42 -45q14 0 29 2v-24q-29 -7 -49 -7q-35 0 -57.5 18t-22.5 46q0 53 69 79h-186v667h224v-32h-143v-263h120v-30h-120v-310h165z" />
    <glyph glyph-name="Ecaron" unicode="&#x11a;" horiz-adv-x="283" 
d="M259 667v-32h-144v-263h120v-30h-120v-310h165v-32h-246v667h225zM250 819l-82 -123h-50l-84 123h74l50 -71l49 71h43z" />
    <glyph glyph-name="ecaron" unicode="&#x11b;" horiz-adv-x="283" 
d="M259 667v-32h-144v-263h120v-30h-120v-310h165v-32h-246v667h225zM250 819l-82 -123h-50l-84 123h74l50 -71l49 71h43z" />
    <glyph glyph-name="Gbreve" unicode="&#x11e;" horiz-adv-x="354" 
d="M96 822h29q8 -27 25.5 -39t48.5 -12t48 12t25 39h30q-17 -109 -103 -109q-88 0 -103 109zM160 342h172v-342h-27l-8 26q-25 -20 -44 -27t-50 -7q-94 0 -138 58t-44 182v190q0 136 52 194q50 58 125 58q44 0 76.5 -23t42.5 -61q4 -15 5 -42l-40 -21q1 15 1 27
q0 40 -22.5 65.5t-58.5 25.5q-34 0 -55 -24q-25 -29 -34 -70.5t-9 -127.5v-207q0 -112 29 -157q26 -40 68 -40q23 0 38 14.5t15 37.5v239h-94v32z" />
    <glyph glyph-name="gbreve" unicode="&#x11f;" horiz-adv-x="354" 
d="M96 822h29q8 -27 25.5 -39t48.5 -12t48 12t25 39h30q-17 -109 -103 -109q-88 0 -103 109zM160 342h172v-342h-27l-8 26q-25 -20 -44 -27t-50 -7q-94 0 -138 58t-44 182v190q0 136 52 194q50 58 125 58q44 0 76.5 -23t42.5 -61q4 -15 5 -42l-40 -21q1 15 1 27
q0 40 -22.5 65.5t-58.5 25.5q-34 0 -55 -24q-25 -29 -34 -70.5t-9 -127.5v-207q0 -112 29 -157q26 -40 68 -40q23 0 38 14.5t15 37.5v239h-94v32z" />
    <glyph glyph-name="Gcommaaccent" unicode="&#x122;" horiz-adv-x="354" 
d="M139 -214v27q21 9 36.5 30.5t15.5 43.5q-21 0 -28 4q-21 11 -21 38q0 19 12 31t31 12q21 0 33.5 -14t12.5 -37q0 -43 -27 -82t-65 -53zM160 342h172v-342h-27l-8 26q-25 -20 -44 -27t-50 -7q-94 0 -138 58t-44 182v190q0 136 52 194q50 58 125 58q44 0 76.5 -23t42.5 -61
q4 -15 5 -42l-40 -21q1 15 1 27q0 40 -22.5 65.5t-58.5 25.5q-34 0 -55 -24q-25 -29 -34 -70.5t-9 -127.5v-207q0 -112 29 -157q26 -40 68 -40q23 0 38 14.5t15 37.5v239h-94v32z" />
    <glyph glyph-name="gcommaaccent" unicode="&#x123;" horiz-adv-x="354" 
d="M139 -214v27q21 9 36.5 30.5t15.5 43.5q-21 0 -28 4q-21 11 -21 38q0 19 12 31t31 12q21 0 33.5 -14t12.5 -37q0 -43 -27 -82t-65 -53zM160 342h172v-342h-27l-8 26q-25 -20 -44 -27t-50 -7q-94 0 -138 58t-44 182v190q0 136 52 194q50 58 125 58q44 0 76.5 -23t42.5 -61
q4 -15 5 -42l-40 -21q1 15 1 27q0 40 -22.5 65.5t-58.5 25.5q-34 0 -55 -24q-25 -29 -34 -70.5t-9 -127.5v-207q0 -112 29 -157q26 -40 68 -40q23 0 38 14.5t15 37.5v239h-94v32z" />
    <glyph glyph-name="Imacron" unicode="&#x12a;" horiz-adv-x="152" 
d="M116 667v-667h-80v667h80zM160 776v-45h-169v45h169z" />
    <glyph glyph-name="imacron" unicode="&#x12b;" horiz-adv-x="152" 
d="M116 667v-667h-80v667h80zM160 776v-45h-169v45h169z" />
    <glyph glyph-name="Iogonek" unicode="&#x12e;" horiz-adv-x="152" 
d="M116 667v-667q-51 -16 -51 -69q0 -45 30 -45q13 0 27 2v-24q-29 -7 -47 -7q-29 0 -48.5 18t-19.5 45q0 54 56 80h-27v667h80z" />
    <glyph glyph-name="iogonek" unicode="&#x12f;" horiz-adv-x="152" 
d="M116 667v-667q-51 -16 -51 -69q0 -45 30 -45q13 0 27 2v-24q-29 -7 -47 -7q-29 0 -48.5 18t-19.5 45q0 54 56 80h-27v667h80z" />
    <glyph glyph-name="Idotaccent" unicode="&#x130;" horiz-adv-x="152" 
d="M116 667v-667h-80v667h80zM75 798q19 0 33 -13.5t14 -32.5q0 -20 -14 -33.5t-33 -13.5t-32.5 14t-13.5 33t13.5 32.5t32.5 13.5z" />
    <glyph glyph-name="dotlessi" unicode="&#x131;" horiz-adv-x="152" 
d="M116 667v-667h-80v667h80z" />
    <glyph glyph-name="Kcommaaccent" unicode="&#x136;" horiz-adv-x="316" 
d="M112 -214v27q21 9 36.5 30.5t15.5 43.5q-21 0 -28 4q-21 11 -21 38q0 19 12 31t31 12q21 0 33.5 -14t12.5 -37q0 -43 -27 -82t-65 -53zM36 667h80v-292l147 292h42l-127 -249l149 -418h-88l-121 339l-2 -3v-336h-80v667z" />
    <glyph glyph-name="kcommaaccent" unicode="&#x137;" horiz-adv-x="316" 
d="M112 -214v27q21 9 36.5 30.5t15.5 43.5q-21 0 -28 4q-21 11 -21 38q0 19 12 31t31 12q21 0 33.5 -14t12.5 -37q0 -43 -27 -82t-65 -53zM36 667h80v-292l147 292h42l-127 -249l149 -418h-88l-121 339l-2 -3v-336h-80v667z" />
    <glyph glyph-name="Lacute" unicode="&#x139;" horiz-adv-x="266" 
d="M113 667v-635h165v-32h-244v667h79zM151 817h76l-120 -123h-35z" />
    <glyph glyph-name="lacute" unicode="&#x13a;" horiz-adv-x="266" 
d="M113 667v-635h165v-32h-244v667h79zM151 817h76l-120 -123h-35z" />
    <glyph glyph-name="Lcommaaccent" unicode="&#x13b;" horiz-adv-x="266" 
d="M113 667v-635h165v-32h-244v667h79zM107 -214v27q21 9 36.5 30.5t15.5 43.5q-21 0 -28 4q-21 11 -21 38q0 19 12 31t31 12q21 0 33.5 -14t12.5 -37q0 -43 -27 -82t-65 -53z" />
    <glyph glyph-name="lcommaaccent" unicode="&#x13c;" horiz-adv-x="266" 
d="M113 667v-635h165v-32h-244v667h79zM107 -214v27q21 9 36.5 30.5t15.5 43.5q-21 0 -28 4q-21 11 -21 38q0 19 12 31t31 12q21 0 33.5 -14t12.5 -37q0 -43 -27 -82t-65 -53z" />
    <glyph glyph-name="Lcaron" unicode="&#x13d;" horiz-adv-x="266" 
d="M113 667v-635h165v-32h-244v667h79zM153 488v27q21 9 36.5 30.5t15.5 43.5q-21 0 -28 4q-21 11 -21 38q0 19 12 31t31 12q21 0 33.5 -14t12.5 -37q0 -43 -27 -82t-65 -53z" />
    <glyph glyph-name="lcaron" unicode="&#x13e;" horiz-adv-x="266" 
d="M113 667v-635h165v-32h-244v667h79zM153 488v27q21 9 36.5 30.5t15.5 43.5q-21 0 -28 4q-21 11 -21 38q0 19 12 31t31 12q21 0 33.5 -14t12.5 -37q0 -43 -27 -82t-65 -53z" />
    <glyph glyph-name="Lslash" unicode="&#x141;" horiz-adv-x="269" 
d="M116 369l89 65v-48l-89 -66v-288h165v-32h-244v262l-34 -26v49l34 25v357h79v-298z" />
    <glyph glyph-name="lslash" unicode="&#x142;" horiz-adv-x="269" 
d="M116 369l89 65v-48l-89 -66v-288h165v-32h-244v262l-34 -26v49l34 25v357h79v-298z" />
    <glyph glyph-name="Nacute" unicode="&#x143;" horiz-adv-x="318" 
d="M285 667v-667h-59l-159 509v-509h-35v667h69l151 -491v491h33zM204 817h75l-120 -123h-34z" />
    <glyph glyph-name="nacute" unicode="&#x144;" horiz-adv-x="318" 
d="M285 667v-667h-59l-159 509v-509h-35v667h69l151 -491v491h33zM204 817h75l-120 -123h-34z" />
    <glyph glyph-name="Ncommaaccent" unicode="&#x145;" horiz-adv-x="318" 
d="M285 667v-667h-59l-159 509v-509h-35v667h69l151 -491v491h33zM113 -214v27q21 9 36.5 30.5t15.5 43.5q-21 0 -28 4q-21 11 -21 38q0 19 12 31t31 12q21 0 33.5 -14t12.5 -37q0 -43 -27 -82t-65 -53z" />
    <glyph glyph-name="ncommaaccent" unicode="&#x146;" horiz-adv-x="318" 
d="M285 667v-667h-59l-159 509v-509h-35v667h69l151 -491v491h33zM113 -214v27q21 9 36.5 30.5t15.5 43.5q-21 0 -28 4q-21 11 -21 38q0 19 12 31t31 12q21 0 33.5 -14t12.5 -37q0 -43 -27 -82t-65 -53z" />
    <glyph glyph-name="Ncaron" unicode="&#x147;" horiz-adv-x="318" 
d="M285 667v-667h-59l-159 509v-509h-35v667h69l151 -491v491h33zM267 819l-82 -123h-50l-84 123h74l50 -71l49 71h43z" />
    <glyph glyph-name="ncaron" unicode="&#x148;" horiz-adv-x="318" 
d="M285 667v-667h-59l-159 509v-509h-35v667h69l151 -491v491h33zM267 819l-82 -123h-50l-84 123h74l50 -71l49 71h43z" />
    <glyph glyph-name="Omacron" unicode="&#x14c;" horiz-adv-x="345" 
d="M21 231v205q0 77 7.5 114t29.5 69q38 55 115 55t115 -55q22 -32 29.5 -69.5t7.5 -113.5v-205q0 -79 -7.5 -115t-29.5 -68q-37 -55 -115 -55q-77 0 -115 55q-22 32 -29.5 69t-7.5 114zM240 231v205q0 116 -9 152q-15 60 -58 60q-36 0 -52 -42q-15 -36 -15 -170v-205
q0 -116 9 -153q15 -59 58 -59q46 0 60 68q7 33 7 144zM277 776v-45h-209v45h209z" />
    <glyph glyph-name="omacron" unicode="&#x14d;" horiz-adv-x="345" 
d="M21 231v205q0 77 7.5 114t29.5 69q38 55 115 55t115 -55q22 -32 29.5 -69.5t7.5 -113.5v-205q0 -79 -7.5 -115t-29.5 -68q-37 -55 -115 -55q-77 0 -115 55q-22 32 -29.5 69t-7.5 114zM240 231v205q0 116 -9 152q-15 60 -58 60q-36 0 -52 -42q-15 -36 -15 -170v-205
q0 -116 9 -153q15 -59 58 -59q46 0 60 68q7 33 7 144zM277 776v-45h-209v45h209z" />
    <glyph glyph-name="Ohungarumlaut" unicode="&#x150;" horiz-adv-x="345" 
d="M21 231v205q0 77 7.5 114t29.5 69q38 55 115 55t115 -55q22 -32 29.5 -69.5t7.5 -113.5v-205q0 -79 -7.5 -115t-29.5 -68q-37 -55 -115 -55q-77 0 -115 55q-22 32 -29.5 69t-7.5 114zM240 231v205q0 116 -9 152q-15 60 -58 60q-36 0 -52 -42q-15 -36 -15 -170v-205
q0 -116 9 -153q15 -59 58 -59q46 0 60 68q7 33 7 144zM129 694h-31l68 123h82zM236 694h-31l67 123h82z" />
    <glyph glyph-name="ohungarumlaut" unicode="&#x151;" horiz-adv-x="345" 
d="M21 231v205q0 77 7.5 114t29.5 69q38 55 115 55t115 -55q22 -32 29.5 -69.5t7.5 -113.5v-205q0 -79 -7.5 -115t-29.5 -68q-37 -55 -115 -55q-77 0 -115 55q-22 32 -29.5 69t-7.5 114zM240 231v205q0 116 -9 152q-15 60 -58 60q-36 0 -52 -42q-15 -36 -15 -170v-205
q0 -116 9 -153q15 -59 58 -59q46 0 60 68q7 33 7 144zM129 694h-31l68 123h82zM236 694h-31l67 123h82z" />
    <glyph glyph-name="OE" unicode="&#x152;" horiz-adv-x="474" 
d="M471 0h-247q-5 0 -9 -1q-25 -6 -49 -6q-42 0 -75.5 22t-49.5 62q-20 49 -20 153v225q0 98 41 158.5t107 60.5q18 0 50 -7h233v-33h-144v-262h120v-31h-120v-310h163v-31zM105 435v-204q0 -133 17 -174q15 -38 50 -38q29 0 42.5 19t13.5 62v473q0 34 -14.5 53t-40.5 19
q-22 0 -34 -12.5t-21 -43.5q-13 -50 -13 -154z" />
    <glyph glyph-name="oe" unicode="&#x153;" horiz-adv-x="474" 
d="M471 0h-247q-5 0 -9 -1q-25 -6 -49 -6q-42 0 -75.5 22t-49.5 62q-20 49 -20 153v225q0 98 41 158.5t107 60.5q18 0 50 -7h233v-33h-144v-262h120v-31h-120v-310h163v-31zM105 435v-204q0 -133 17 -174q15 -38 50 -38q29 0 42.5 19t13.5 62v473q0 34 -14.5 53t-40.5 19
q-22 0 -34 -12.5t-21 -43.5q-13 -50 -13 -154z" />
    <glyph glyph-name="Racute" unicode="&#x154;" horiz-adv-x="335" 
d="M34 0v667h120q80 0 118 -32.5t38 -99.5v-82q0 -97 -82 -121q37 -12 55 -38q7 -12 9 -35.5t3 -103.5t4.5 -107t13.5 -37q3 -4 10 -11h-93q-10 15 -13 41.5t-4 119.5q0 74 -3 100t-14 39q-17 19 -65 19h-16v-319h-81zM115 348h15q45 0 69 17q17 14 23 31.5t6 52.5v86
q0 35 -6 52.5t-23 31.5q-24 17 -69 17h-15v-288zM211 817h75l-120 -123h-34z" />
    <glyph glyph-name="racute" unicode="&#x155;" horiz-adv-x="335" 
d="M34 0v667h120q80 0 118 -32.5t38 -99.5v-82q0 -97 -82 -121q37 -12 55 -38q7 -12 9 -35.5t3 -103.5t4.5 -107t13.5 -37q3 -4 10 -11h-93q-10 15 -13 41.5t-4 119.5q0 74 -3 100t-14 39q-17 19 -65 19h-16v-319h-81zM115 348h15q45 0 69 17q17 14 23 31.5t6 52.5v86
q0 35 -6 52.5t-23 31.5q-24 17 -69 17h-15v-288zM211 817h75l-120 -123h-34z" />
    <glyph glyph-name="Rcommaaccent" unicode="&#x156;" horiz-adv-x="335" 
d="M34 0v667h120q80 0 118 -32.5t38 -99.5v-82q0 -97 -82 -121q37 -12 55 -38q7 -12 9 -35.5t3 -103.5t4.5 -107t13.5 -37q3 -4 10 -11h-93q-10 15 -13 41.5t-4 119.5q0 74 -3 100t-14 39q-17 19 -65 19h-16v-319h-81zM115 348h15q45 0 69 17q17 14 23 31.5t6 52.5v86
q0 35 -6 52.5t-23 31.5q-24 17 -69 17h-15v-288zM120 -214v27q21 9 36.5 30.5t15.5 43.5q-21 0 -28 4q-21 11 -21 38q0 19 12 31t31 12q21 0 33.5 -14t12.5 -37q0 -43 -27 -82t-65 -53z" />
    <glyph glyph-name="rcommaaccent" unicode="&#x157;" horiz-adv-x="335" 
d="M34 0v667h120q80 0 118 -32.5t38 -99.5v-82q0 -97 -82 -121q37 -12 55 -38q7 -12 9 -35.5t3 -103.5t4.5 -107t13.5 -37q3 -4 10 -11h-93q-10 15 -13 41.5t-4 119.5q0 74 -3 100t-14 39q-17 19 -65 19h-16v-319h-81zM115 348h15q45 0 69 17q17 14 23 31.5t6 52.5v86
q0 35 -6 52.5t-23 31.5q-24 17 -69 17h-15v-288zM120 -214v27q21 9 36.5 30.5t15.5 43.5q-21 0 -28 4q-21 11 -21 38q0 19 12 31t31 12q21 0 33.5 -14t12.5 -37q0 -43 -27 -82t-65 -53z" />
    <glyph glyph-name="Rcaron" unicode="&#x158;" horiz-adv-x="335" 
d="M34 0v667h120q80 0 118 -32.5t38 -99.5v-82q0 -97 -82 -121q37 -12 55 -38q7 -12 9 -35.5t3 -103.5t4.5 -107t13.5 -37q3 -4 10 -11h-93q-10 15 -13 41.5t-4 119.5q0 74 -3 100t-14 39q-17 19 -65 19h-16v-319h-81zM115 348h15q45 0 69 17q17 14 23 31.5t6 52.5v86
q0 35 -6 52.5t-23 31.5q-24 17 -69 17h-15v-288zM274 819l-82 -123h-50l-84 123h74l50 -71l49 71h43z" />
    <glyph glyph-name="rcaron" unicode="&#x159;" horiz-adv-x="335" 
d="M34 0v667h120q80 0 118 -32.5t38 -99.5v-82q0 -97 -82 -121q37 -12 55 -38q7 -12 9 -35.5t3 -103.5t4.5 -107t13.5 -37q3 -4 10 -11h-93q-10 15 -13 41.5t-4 119.5q0 74 -3 100t-14 39q-17 19 -65 19h-16v-319h-81zM115 348h15q45 0 69 17q17 14 23 31.5t6 52.5v86
q0 35 -6 52.5t-23 31.5q-24 17 -69 17h-15v-288zM274 819l-82 -123h-50l-84 123h74l50 -71l49 71h43z" />
    <glyph glyph-name="Sacute" unicode="&#x15a;" horiz-adv-x="297" 
d="M193 817h76l-120 -123h-35zM264 551l-44 -17q6 32 6 44q0 28 -22 48.5t-52 20.5q-33 0 -52 -23t-19 -63q0 -62 48 -126l84 -110q37 -49 52.5 -88.5t15.5 -88.5q0 -70 -37.5 -112.5t-99.5 -42.5q-59 0 -94 29.5t-35 78.5q0 13 2 32l48 18q-10 -41 -10 -55q0 -32 24.5 -55
t58.5 -23q73 0 73 101q0 30 -12.5 56t-51.5 73l-84 106q-48 62 -48 158q0 73 37 117.5t99 44.5q34 0 61.5 -15t40.5 -41q8 -18 11 -67z" />
    <glyph glyph-name="sacute" unicode="&#x15b;" horiz-adv-x="297" 
d="M193 817h76l-120 -123h-35zM264 551l-44 -17q6 32 6 44q0 28 -22 48.5t-52 20.5q-33 0 -52 -23t-19 -63q0 -62 48 -126l84 -110q37 -49 52.5 -88.5t15.5 -88.5q0 -70 -37.5 -112.5t-99.5 -42.5q-59 0 -94 29.5t-35 78.5q0 13 2 32l48 18q-10 -41 -10 -55q0 -32 24.5 -55
t58.5 -23q73 0 73 101q0 30 -12.5 56t-51.5 73l-84 106q-48 62 -48 158q0 73 37 117.5t99 44.5q34 0 61.5 -15t40.5 -41q8 -18 11 -67z" />
    <glyph glyph-name="Scedilla" unicode="&#x15e;" horiz-adv-x="297" 
d="M155 -6l-13 -37q28 -1 39 -5q17 -7 29 -25t12 -37q0 -31 -25 -54t-60 -23q-18 0 -42 6v26q20 -5 28 -5q16 0 27.5 14t11.5 33q0 44 -49 44h-9l22 63q-111 14 -111 107q0 12 2 32l48 18q-10 -42 -10 -54q0 -32 24.5 -55t58.5 -23q73 0 73 101q0 29 -12.5 54.5t-50.5 73.5
l-84 106q-49 62 -49 158q0 73 37 117.5t99 44.5q34 0 61.5 -15t40.5 -41q10 -21 11 -67l-43 -17q5 32 5 44q0 28 -22 48.5t-51 20.5q-33 0 -52 -23t-19 -63q0 -65 47 -126l84 -110q37 -48 52.5 -88t15.5 -88t-20 -86t-54 -56q-24 -12 -52 -13z" />
    <glyph glyph-name="scedilla" unicode="&#x15f;" horiz-adv-x="297" 
d="M155 -6l-13 -37q28 -1 39 -5q17 -7 29 -25t12 -37q0 -31 -25 -54t-60 -23q-18 0 -42 6v26q20 -5 28 -5q16 0 27.5 14t11.5 33q0 44 -49 44h-9l22 63q-111 14 -111 107q0 12 2 32l48 18q-10 -42 -10 -54q0 -32 24.5 -55t58.5 -23q73 0 73 101q0 29 -12.5 54.5t-50.5 73.5
l-84 106q-49 62 -49 158q0 73 37 117.5t99 44.5q34 0 61.5 -15t40.5 -41q10 -21 11 -67l-43 -17q5 32 5 44q0 28 -22 48.5t-51 20.5q-33 0 -52 -23t-19 -63q0 -65 47 -126l84 -110q37 -48 52.5 -88t15.5 -88t-20 -86t-54 -56q-24 -12 -52 -13z" />
    <glyph glyph-name="Scaron" unicode="&#x160;" horiz-adv-x="297" 
d="M256 819l-82 -123h-50l-84 123h75l49 -71l49 71h43zM264 551l-44 -17q6 32 6 44q0 28 -22 48.5t-52 20.5q-33 0 -52 -23t-19 -63q0 -62 48 -126l84 -110q37 -49 52.5 -88.5t15.5 -88.5q0 -70 -37.5 -112.5t-99.5 -42.5q-59 0 -94 29.5t-35 78.5q0 13 2 32l48 18
q-10 -41 -10 -55q0 -32 24.5 -55t58.5 -23q73 0 73 101q0 30 -12.5 56t-51.5 73l-84 106q-48 62 -48 158q0 73 37 117.5t99 44.5q34 0 61.5 -15t40.5 -41q8 -18 11 -67z" />
    <glyph glyph-name="scaron" unicode="&#x161;" horiz-adv-x="297" 
d="M256 819l-82 -123h-50l-84 123h75l49 -71l49 71h43zM264 551l-44 -17q6 32 6 44q0 28 -22 48.5t-52 20.5q-33 0 -52 -23t-19 -63q0 -62 48 -126l84 -110q37 -49 52.5 -88.5t15.5 -88.5q0 -70 -37.5 -112.5t-99.5 -42.5q-59 0 -94 29.5t-35 78.5q0 13 2 32l48 18
q-10 -41 -10 -55q0 -32 24.5 -55t58.5 -23q73 0 73 101q0 30 -12.5 56t-51.5 73l-84 106q-48 62 -48 158q0 73 37 117.5t99 44.5q34 0 61.5 -15t40.5 -41q8 -18 11 -67z" />
    <glyph glyph-name="Tcommaaccent" unicode="&#x162;" horiz-adv-x="248" 
d="M255 667v-32h-89v-635h-83v635h-90v32h262zM78 -214v27q21 9 36.5 30.5t15.5 43.5q-21 0 -28 4q-21 11 -21 38q0 19 12 31t31 12q21 0 33.5 -14t12.5 -37q0 -43 -27 -82t-65 -53z" />
    <glyph glyph-name="tcommaaccent" unicode="&#x163;" horiz-adv-x="248" 
d="M255 667v-32h-89v-635h-83v635h-90v32h262zM78 -214v27q21 9 36.5 30.5t15.5 43.5q-21 0 -28 4q-21 11 -21 38q0 19 12 31t31 12q21 0 33.5 -14t12.5 -37q0 -43 -27 -82t-65 -53z" />
    <glyph glyph-name="Tcaron" unicode="&#x164;" horiz-adv-x="248" 
d="M255 667v-32h-89v-635h-83v635h-90v32h262zM232 819l-82 -123h-50l-84 123h75l49 -71l49 71h43z" />
    <glyph glyph-name="tcaron" unicode="&#x165;" horiz-adv-x="248" 
d="M255 667v-32h-89v-635h-83v635h-90v32h262zM232 819l-82 -123h-50l-84 123h75l49 -71l49 71h43z" />
    <glyph glyph-name="Umacron" unicode="&#x16a;" horiz-adv-x="331" 
d="M276 776v-45h-209v45h209zM30 667h80v-534q0 -39 2.5 -52.5t13.5 -29.5q20 -29 64 -29q43 0 63 29q11 16 13.5 29.5t2.5 52.5v534h33v-534q0 -63 -18 -92q-28 -48 -119 -48q-78 0 -110 39q-25 32 -25 101v534z" />
    <glyph glyph-name="umacron" unicode="&#x16b;" horiz-adv-x="331" 
d="M276 776v-45h-209v45h209zM30 667h80v-534q0 -39 2.5 -52.5t13.5 -29.5q20 -29 64 -29q43 0 63 29q11 16 13.5 29.5t2.5 52.5v534h33v-534q0 -63 -18 -92q-28 -48 -119 -48q-78 0 -110 39q-25 32 -25 101v534z" />
    <glyph glyph-name="Uring" unicode="&#x16e;" horiz-adv-x="331" 
d="M178 838q34 0 57.5 -23.5t23.5 -57.5t-23.5 -57.5t-57.5 -23.5q-33 0 -56.5 24t-23.5 58q0 32 24 56t56 24zM178 799q-18 0 -30.5 -12.5t-12.5 -30.5t12.5 -31t30.5 -13t30.5 12.5t12.5 31.5q0 18 -12.5 30.5t-30.5 12.5zM30 667h80v-534q0 -39 2.5 -52.5t13.5 -29.5
q20 -29 64 -29q43 0 63 29q11 16 13.5 29.5t2.5 52.5v534h33v-534q0 -63 -18 -92q-28 -48 -119 -48q-78 0 -110 39q-25 32 -25 101v534z" />
    <glyph glyph-name="uring" unicode="&#x16f;" horiz-adv-x="331" 
d="M178 838q34 0 57.5 -23.5t23.5 -57.5t-23.5 -57.5t-57.5 -23.5q-33 0 -56.5 24t-23.5 58q0 32 24 56t56 24zM178 799q-18 0 -30.5 -12.5t-12.5 -30.5t12.5 -31t30.5 -13t30.5 12.5t12.5 31.5q0 18 -12.5 30.5t-30.5 12.5zM30 667h80v-534q0 -39 2.5 -52.5t13.5 -29.5
q20 -29 64 -29q43 0 63 29q11 16 13.5 29.5t2.5 52.5v534h33v-534q0 -63 -18 -92q-28 -48 -119 -48q-78 0 -110 39q-25 32 -25 101v534z" />
    <glyph glyph-name="Uhungarumlaut" unicode="&#x170;" horiz-adv-x="331" 
d="M122 694h-31l67 123h82zM228 694h-31l67 123h82zM30 667h80v-534q0 -39 2.5 -52.5t13.5 -29.5q20 -29 64 -29q43 0 63 29q11 16 13.5 29.5t2.5 52.5v534h33v-534q0 -63 -18 -92q-28 -48 -119 -48q-78 0 -110 39q-25 32 -25 101v534z" />
    <glyph glyph-name="uhungarumlaut" unicode="&#x171;" horiz-adv-x="331" 
d="M122 694h-31l67 123h82zM228 694h-31l67 123h82zM30 667h80v-534q0 -39 2.5 -52.5t13.5 -29.5q20 -29 64 -29q43 0 63 29q11 16 13.5 29.5t2.5 52.5v534h33v-534q0 -63 -18 -92q-28 -48 -119 -48q-78 0 -110 39q-25 32 -25 101v534z" />
    <glyph glyph-name="Uogonek" unicode="&#x172;" horiz-adv-x="331" 
d="M30 667h80v-534q0 -39 2.5 -52.5t13.5 -29.5q20 -29 64 -29q43 0 63 29q11 16 13.5 29.5t2.5 52.5v534h33v-534q0 -45 -6 -66.5t-26 -44.5q-38 -46 -38 -88q0 -48 42 -48q15 0 28 2v-24q-28 -7 -48 -7q-34 0 -57 18.5t-23 45.5q0 44 43 77q-28 -5 -52 -5q-77 0 -110 39
q-25 32 -25 101v534z" />
    <glyph glyph-name="uogonek" unicode="&#x173;" horiz-adv-x="331" 
d="M30 667h80v-534q0 -39 2.5 -52.5t13.5 -29.5q20 -29 64 -29q43 0 63 29q11 16 13.5 29.5t2.5 52.5v534h33v-534q0 -45 -6 -66.5t-26 -44.5q-38 -46 -38 -88q0 -48 42 -48q15 0 28 2v-24q-28 -7 -48 -7q-34 0 -57 18.5t-23 45.5q0 44 43 77q-28 -5 -52 -5q-77 0 -110 39
q-25 32 -25 101v534z" />
    <glyph glyph-name="Ydieresis" unicode="&#x178;" horiz-adv-x="264" 
d="M276 667l-91 -354v-313h-80v306l-115 361h86l90 -292l75 292h35zM77 798q19 0 33 -13.5t14 -32.5q0 -20 -14 -33.5t-33 -13.5t-32.5 14t-13.5 33t13.5 32.5t32.5 13.5zM212 798q19 0 33 -13.5t14 -32.5q0 -20 -13.5 -33.5t-33.5 -13.5q-19 0 -32.5 14t-13.5 33t13.5 32.5
t32.5 13.5z" />
    <glyph glyph-name="Zacute" unicode="&#x179;" horiz-adv-x="285" 
d="M284 667v-29l-194 -606h186v-32h-276v30l195 605h-178v32h267zM201 817h75l-120 -123h-34z" />
    <glyph glyph-name="zacute" unicode="&#x17a;" horiz-adv-x="285" 
d="M284 667v-29l-194 -606h186v-32h-276v30l195 605h-178v32h267zM201 817h75l-120 -123h-34z" />
    <glyph glyph-name="Zdotaccent" unicode="&#x17b;" horiz-adv-x="285" 
d="M284 667v-29l-194 -606h186v-32h-276v30l195 605h-178v32h267zM155 798q19 0 33 -13.5t14 -32.5q0 -20 -14 -33.5t-33 -13.5t-32.5 14t-13.5 33t13.5 32.5t32.5 13.5z" />
    <glyph glyph-name="zdotaccent" unicode="&#x17c;" horiz-adv-x="285" 
d="M284 667v-29l-194 -606h186v-32h-276v30l195 605h-178v32h267zM155 798q19 0 33 -13.5t14 -32.5q0 -20 -14 -33.5t-33 -13.5t-32.5 14t-13.5 33t13.5 32.5t32.5 13.5z" />
    <glyph glyph-name="Zcaron" unicode="&#x17d;" horiz-adv-x="285" 
d="M284 667v-29l-194 -606h186v-32h-276v30l195 605h-178v32h267zM263 819l-82 -123h-49l-84 123h74l50 -71l49 71h42z" />
    <glyph glyph-name="zcaron" unicode="&#x17e;" horiz-adv-x="285" 
d="M284 667v-29l-194 -606h186v-32h-276v30l195 605h-178v32h267zM263 819l-82 -123h-49l-84 123h74l50 -71l49 71h42z" />
    <glyph glyph-name="florin" unicode="&#x192;" horiz-adv-x="312" 
d="M88 303h-64v30h68l33 236q7 49 35.5 78.5t68.5 29.5q32 0 52 -18t20 -47q0 -15 -5 -39l-50 -18q14 41 14 59q0 17 -9 30t-22 13q-24 0 -39.5 -23.5t-15.5 -58.5q0 -22 14 -83l-22 -159h67v-30h-71l-47 -336h-74z" />
    <glyph glyph-name="uni01D3" unicode="&#x1d3;" horiz-adv-x="331" 
d="M286 819l-82 -123h-49l-84 123h74l49 -71l49 71h43zM30 667h80v-534q0 -39 2.5 -52.5t13.5 -29.5q20 -29 64 -29q43 0 63 29q11 16 13.5 29.5t2.5 52.5v534h33v-534q0 -63 -18 -92q-28 -48 -119 -48q-78 0 -110 39q-25 32 -25 101v534z" />
    <glyph glyph-name="uni01D4" unicode="&#x1d4;" horiz-adv-x="331" 
d="M286 819l-82 -123h-49l-84 123h74l49 -71l49 71h43zM30 667h80v-534q0 -39 2.5 -52.5t13.5 -29.5q20 -29 64 -29q43 0 63 29q11 16 13.5 29.5t2.5 52.5v534h33v-534q0 -63 -18 -92q-28 -48 -119 -48q-78 0 -110 39q-25 32 -25 101v534z" />
    <glyph glyph-name="Scommaaccent" unicode="&#x218;" horiz-adv-x="297" 
d="M102 -214v27q21 9 36.5 30.5t15.5 43.5q-21 0 -28 4q-21 11 -21 38q0 19 12 31t31 12q21 0 33.5 -14t12.5 -37q0 -43 -27 -82t-65 -53zM264 551l-44 -17q6 32 6 44q0 28 -22 48.5t-52 20.5q-33 0 -52 -23t-19 -63q0 -62 48 -126l84 -110q37 -49 52.5 -88.5t15.5 -88.5
q0 -70 -37.5 -112.5t-99.5 -42.5q-59 0 -94 29.5t-35 78.5q0 13 2 32l48 18q-10 -41 -10 -55q0 -32 24.5 -55t58.5 -23q73 0 73 101q0 30 -12.5 56t-51.5 73l-84 106q-48 62 -48 158q0 73 37 117.5t99 44.5q34 0 61.5 -15t40.5 -41q8 -18 11 -67z" />
    <glyph glyph-name="scommaaccent" unicode="&#x219;" horiz-adv-x="297" 
d="M102 -214v27q21 9 36.5 30.5t15.5 43.5q-21 0 -28 4q-21 11 -21 38q0 19 12 31t31 12q21 0 33.5 -14t12.5 -37q0 -43 -27 -82t-65 -53zM264 551l-44 -17q6 32 6 44q0 28 -22 48.5t-52 20.5q-33 0 -52 -23t-19 -63q0 -62 48 -126l84 -110q37 -49 52.5 -88.5t15.5 -88.5
q0 -70 -37.5 -112.5t-99.5 -42.5q-59 0 -94 29.5t-35 78.5q0 13 2 32l48 18q-10 -41 -10 -55q0 -32 24.5 -55t58.5 -23q73 0 73 101q0 30 -12.5 56t-51.5 73l-84 106q-48 62 -48 158q0 73 37 117.5t99 44.5q34 0 61.5 -15t40.5 -41q8 -18 11 -67z" />
    <glyph glyph-name="uni021A" unicode="&#x21a;" horiz-adv-x="248" 
d="M255 667v-32h-89v-635h-83v635h-90v32h262zM78 -214v27q21 9 36.5 30.5t15.5 43.5q-21 0 -28 4q-21 11 -21 38q0 19 12 31t31 12q21 0 33.5 -14t12.5 -37q0 -43 -27 -82t-65 -53z" />
    <glyph glyph-name="uni021B" unicode="&#x21b;" horiz-adv-x="248" 
d="M255 667v-32h-89v-635h-83v635h-90v32h262zM78 -214v27q21 9 36.5 30.5t15.5 43.5q-21 0 -28 4q-21 11 -21 38q0 19 12 31t31 12q21 0 33.5 -14t12.5 -37q0 -43 -27 -82t-65 -53z" />
    <glyph glyph-name="afii57929" unicode="&#x2bc;" horiz-adv-x="140" 
d="M20 448v26q23 12 39 41.5t16 58.5q-55 1 -55 52q0 22 14 36.5t35 14.5q23 0 37 -17t14 -44q0 -53 -29 -101.5t-71 -66.5z" />
    <glyph glyph-name="circumflex" unicode="&#x2c6;" 
d="M142 696l82 123h50l84 -123h-75l-49 71l-49 -71h-43z" />
    <glyph glyph-name="caron" unicode="&#x2c7;" 
d="M358 819l-82 -123h-50l-84 123h74l50 -71l49 71h43z" />
    <glyph glyph-name="uni02C9" unicode="&#x2c9;" 
d="M354 776v-45h-209v45h209z" />
    <glyph glyph-name="breve" unicode="&#x2d8;" 
d="M147 822h29q16 -51 74 -51t74 51h29q-15 -109 -103 -109t-103 109z" />
    <glyph glyph-name="dotaccent" unicode="&#x2d9;" 
d="M249 798q19 0 33 -13.5t14 -32.5q0 -20 -14 -33.5t-33 -13.5t-32.5 14t-13.5 33t13.5 32.5t32.5 13.5z" />
    <glyph glyph-name="ring" unicode="&#x2da;" 
d="M249 838q34 0 57.5 -23.5t23.5 -57.5t-23.5 -57.5t-56.5 -23.5q-34 0 -57 23.5t-23 58.5q0 32 23.5 56t55.5 24zM249 799q-17 0 -29.5 -12.5t-12.5 -30.5t12.5 -31t29.5 -13q18 0 30.5 12.5t12.5 31.5q0 18 -12.5 30.5t-30.5 12.5z" />
    <glyph glyph-name="ogonek" unicode="&#x2db;" 
d="M395 0h60q-71 -16 -71 -69q0 -45 42 -45q1 0 29 2v-24q-28 -7 -49 -7q-34 0 -57 18.5t-23 45.5q0 53 69 79z" />
    <glyph glyph-name="tilde" unicode="&#x2dc;" 
d="M159 704h-35q8 53 24 72q20 22 43 22q20 0 74 -25q33 -15 45 -15q28 0 32 42h35q-8 -51 -19 -68q-18 -28 -51 -28q-27 0 -75 23q-32 16 -48 16q-18 0 -25 -39z" />
    <glyph glyph-name="hungarumlaut" unicode="&#x2dd;" 
d="M207 694h-31l67 123h82zM313 694h-31l67 123h83z" />
    <glyph glyph-name="uni0387" unicode="&#x387;" horiz-adv-x="140" 
d="M70 383q21 0 35.5 -14.5t14.5 -35.5t-14.5 -35.5t-35.5 -14.5t-35.5 14.5t-14.5 36.5q0 20 15 34.5t35 14.5z" />
    <glyph glyph-name="uni2011" unicode="&#x2011;" horiz-adv-x="148" 
d="M137 365v-62h-126v62h126z" />
    <glyph glyph-name="figuredash" unicode="&#x2012;" horiz-adv-x="379" 
d="M316 365v-62h-253v62h253z" />
    <glyph glyph-name="endash" unicode="&#x2013;" horiz-adv-x="379" 
d="M316 365v-62h-253v62h253z" />
    <glyph glyph-name="emdash" unicode="&#x2014;" horiz-adv-x="356" 
d="M352 365v-62h-347v62h347z" />
    <glyph glyph-name="afii00208" unicode="&#x2015;" horiz-adv-x="356" 
d="M352 365v-62h-347v62h347z" />
    <glyph glyph-name="quoteleft" unicode="&#x2018;" horiz-adv-x="140" 
d="M120 677v-26q-23 -12 -39 -41.5t-16 -58.5q55 -3 55 -52q0 -22 -14 -36.5t-35 -14.5q-23 0 -37 17t-14 44q0 52 29.5 101.5t70.5 66.5z" />
    <glyph glyph-name="quoteright" unicode="&#x2019;" horiz-adv-x="140" 
d="M20 448v26q23 12 39 41.5t16 58.5q-55 1 -55 52q0 22 14 36.5t35 14.5q23 0 37 -17t14 -44q0 -53 -29 -101.5t-71 -66.5z" />
    <glyph glyph-name="quotesinglbase" unicode="&#x201a;" horiz-adv-x="140" 
d="M20 -127v26q23 12 39 41t16 58q-55 3 -55 53q0 22 14 36.5t35 14.5q23 0 37 -17t14 -44q0 -53 -29 -102t-71 -66z" />
    <glyph glyph-name="quotedblleft" unicode="&#x201c;" horiz-adv-x="260" 
d="M120 677v-26q-23 -12 -39 -41.5t-16 -58.5q55 -3 55 -52q0 -22 -14 -36.5t-35 -14.5q-23 0 -37 17t-14 44q0 52 29.5 101.5t70.5 66.5zM240 677v-26q-23 -13 -39 -42t-16 -58q55 -3 55 -52q0 -22 -14 -36.5t-35 -14.5q-23 0 -37 17t-14 44q0 52 29.5 101.5t70.5 66.5z
" />
    <glyph glyph-name="quotedblright" unicode="&#x201d;" horiz-adv-x="260" 
d="M20 448v26q23 12 39 41.5t16 58.5q-55 1 -55 52q0 22 14 36.5t35 14.5q23 0 37 -17t14 -44q0 -53 -29 -101.5t-71 -66.5zM139 448v26q23 12 39 41.5t16 58.5q-55 1 -55 52q0 22 14 36.5t35 14.5q23 0 37 -17t14 -44q0 -53 -29 -101.5t-71 -66.5z" />
    <glyph glyph-name="quotedblbase" unicode="&#x201e;" horiz-adv-x="260" 
d="M20 -127v26q22 11 38.5 40.5t16.5 58.5q-55 3 -55 53q0 22 14 36.5t35 14.5q23 0 37 -17t14 -44q0 -52 -29.5 -101.5t-70.5 -66.5zM139 -127v26q22 11 38.5 40.5t16.5 58.5q-55 3 -55 53q0 22 14 36.5t35 14.5q23 0 37 -17t14 -44q0 -52 -29.5 -101.5t-70.5 -66.5z" />
    <glyph glyph-name="dagger" unicode="&#x2020;" horiz-adv-x="379" 
d="M226 677v-200h99v-40h-99v-470h-73v470h-98v40h98v190q34 2 73 10z" />
    <glyph glyph-name="daggerdbl" unicode="&#x2021;" horiz-adv-x="379" 
d="M226 377h99v-40h-99v-370h-73v370h-98v40h98v60h-98v40h98v190q34 2 73 10v-200h99v-40h-99v-60z" />
    <glyph glyph-name="bullet" unicode="&#x2022;" horiz-adv-x="667" 
d="M337 477q55 0 95.5 -41t40.5 -97q0 -58 -40.5 -98.5t-97.5 -40.5t-98 40.5t-41 97.5q0 58 41 98.5t100 40.5z" />
    <glyph glyph-name="ellipsis" unicode="&#x2026;" horiz-adv-x="540" 
d="M90 93q21 0 35.5 -14.5t14.5 -35.5t-14.5 -35.5t-35.5 -14.5t-35.5 14.5t-14.5 36.5q0 20 15 34.5t35 14.5zM270 93q21 0 35.5 -14.5t14.5 -35.5t-14.5 -35.5t-35.5 -14.5t-35.5 14.5t-14.5 36.5q0 20 15 34.5t35 14.5zM450 93q21 0 35.5 -14.5t14.5 -35.5t-14.5 -35.5
t-35.5 -14.5t-35.5 14.5t-14.5 36.5q0 20 15 34.5t35 14.5z" />
    <glyph glyph-name="perthousand" unicode="&#x2030;" horiz-adv-x="626" 
d="M189 528v-54q0 -70 -13 -97q-23 -48 -78 -48q-60 0 -81 57q-10 24 -10 88v54q0 70 13 97q23 48 78 48q61 0 81 -57q10 -27 10 -88zM68 528v-54q0 -65 4 -85q6 -37 26 -37q21 0 27 43q3 23 3 79v52q-2 77 -4 88q-6 37 -26 37q-21 0 -27 -44q-3 -19 -3 -79zM30 0l313 667
h39l-313 -667h-39zM405 194v-54q0 -69 -13 -96q-23 -48 -78 -48q-60 0 -81 56q-10 29 -10 88v54q0 70 13 97q23 48 78 48q61 0 81 -57q10 -26 10 -88zM284 194v-54q0 -65 4 -85q6 -36 26 -36q21 0 27 43q3 21 3 78v52q-2 77 -4 88q-6 37 -26 37q-21 0 -27 -44q-3 -20 -3 -79
zM619 194v-54q0 -69 -13 -96q-23 -48 -78 -48q-62 0 -82 56q-10 29 -10 88v54q0 70 13 97q23 48 79 48q61 0 81 -57q10 -26 10 -88zM497 194v-54q0 -65 4 -85q6 -36 27 -36t27 43q3 21 3 78v52q-2 77 -4 88q-6 37 -27 37t-27 -44q-3 -20 -3 -79z" />
    <glyph glyph-name="guilsinglleft" unicode="&#x2039;" horiz-adv-x="196" 
d="M176 151h-40l-116 171v23l96 171h40l-75 -183z" />
    <glyph glyph-name="guilsinglright" unicode="&#x203a;" horiz-adv-x="196" 
d="M20 516h40l116 -171v-23l-96 -171h-40l75 183z" />
    <glyph glyph-name="fraction" unicode="&#x2044;" horiz-adv-x="86" 
d="M-133 0l313 667h39l-313 -667h-39z" />
    <glyph glyph-name="zerosuperior" unicode="&#x2070;" horiz-adv-x="200" 
d="M190 527v-120q0 -70 -13 -97q-23 -47 -77 -47q-60 0 -81 56q-10 27 -10 88v120q0 70 13 97q24 47 78 47q60 0 80 -56q10 -24 10 -88zM69 527v-120q0 -71 6.5 -96.5t24.5 -25.5q21 0 27 44q3 21 3 78v118q-2 77 -4 87q-6 37 -26 37q-18 0 -24.5 -25.5t-6.5 -96.5z" />
    <glyph glyph-name="foursuperior" unicode="&#x2074;" horiz-adv-x="200" 
d="M183 375h-25v-108h-57v108h-88v23l109 271h36v-266h25v-28zM46 403h56v137z" />
    <glyph glyph-name="fivesuperior" unicode="&#x2075;" horiz-adv-x="200" 
d="M175 667l-10 -43h-99l-15 -128q23 12 44 12q49 0 73 -32q16 -19 16 -65v-48q0 -44 -26.5 -72t-68.5 -28q-35 0 -57.5 16t-22.5 42q0 8 3 26l34 5q-5 -25 -5 -30q0 -16 10.5 -26.5t26.5 -10.5q49 0 49 80v48q0 38 -10 54t-33 16q-12 0 -19.5 -5t-23.5 -22l-23 6l24 205
h133z" />
    <glyph glyph-name="sixsuperior" unicode="&#x2076;" horiz-adv-x="200" 
d="M177 601l-34 -8q1 4 1 7l1 4q2 14 2 19q0 11 -7 18.5t-17 7.5q-51 0 -51 -123v-31q15 17 45 17q70 0 70 -95v-44q0 -52 -22 -81t-63 -29q-46 0 -67 30.5t-21 97.5v121q0 59 13 92q13 31 37 49t52 18t45.5 -14.5t17.5 -37.5q0 -5 -1 -13zM72 422v-72q0 -65 29 -65
q28 0 28 70v72q0 63 -22 63q-15 0 -25 -19.5t-10 -48.5z" />
    <glyph glyph-name="sevensuperior" unicode="&#x2077;" horiz-adv-x="200" 
d="M194 667v-32q-83 -126 -87 -352v-6l-1 -3v-7h-62l1 6v2q4 103 26.5 174.5t81.5 174.5h-147l7 43h181z" />
    <glyph glyph-name="eightsuperior" unicode="&#x2078;" horiz-adv-x="200" 
d="M133 492q37 -28 49.5 -50.5t12.5 -62.5q0 -54 -26.5 -85t-72.5 -31q-41 0 -66 28t-25 75q0 46 27 79q4 4 28 26q-27 23 -36.5 42.5t-9.5 53.5q0 47 24 75.5t64 28.5q34 0 55 -24t21 -62q0 -57 -45 -93zM100 516l15 -10q24 21 24 71q0 40 -8.5 56t-30.5 16q-40 0 -40 -59
q0 -27 8.5 -42.5t31.5 -31.5zM100 443l-21 15q-21 -21 -28 -39.5t-7 -54.5q0 -79 52 -79q51 0 51 71q0 31 -10 49.5t-37 37.5z" />
    <glyph glyph-name="ninesuperior" unicode="&#x2079;" horiz-adv-x="200" 
d="M24 332l34 8q-4 -24 -4 -31q0 -11 6.5 -18t17.5 -7q51 0 51 123v31q-17 -16 -45 -16q-70 0 -70 94v44q0 52 22 81t63 29q46 0 67 -30.5t21 -97.5v-121q0 -60 -13 -92q-29 -67 -90 -67q-28 0 -45 14.5t-17 37.5q0 5 1 13zM129 511v73q0 64 -29 64q-28 0 -28 -69v-73
q0 -62 22 -62q15 0 25 19t10 48z" />
    <glyph glyph-name="zeroinferior" unicode="&#x2080;" horiz-adv-x="200" 
d="M190 260v-120q0 -70 -13 -97q-23 -47 -77 -47q-60 0 -81 56q-10 27 -10 88v120q0 70 13 97q24 47 78 47q60 0 80 -56q10 -24 10 -88zM69 260v-120q0 -71 6.5 -96.5t24.5 -25.5q21 0 27 44q3 21 3 78v118q-2 77 -4 87q-6 37 -26 37q-18 0 -24.5 -25.5t-6.5 -96.5z" />
    <glyph glyph-name="oneinferior" unicode="&#x2081;" horiz-adv-x="200" 
d="M140 400v-400h-56v336q-19 -9 -40 -11l-6 -1v27q29 6 44 16.5t25 32.5h33z" />
    <glyph glyph-name="twoinferior" unicode="&#x2082;" horiz-adv-x="200" 
d="M178 43v-43h-158v56q0 42 43 97l30 39q31 39 31 83v61q0 21 -9 33.5t-24 12.5q-16 0 -27 -14.5t-11 -35.5q0 -13 12 -42l-37 9q-6 24 -6 36q0 31 23 50t58 19t56.5 -21.5t21.5 -56.5v-25q0 -38 -9 -56t-48 -61q-34 -36 -44.5 -60.5t-10.5 -66.5v-14h109z" />
    <glyph glyph-name="threeinferior" unicode="&#x2083;" horiz-adv-x="200" 
d="M16 91h33q-6 -24 -6 -35q-1 -15 11 -26.5t29 -11.5q23 0 32.5 16t9.5 53v48q0 34 -11.5 46t-43.5 12q-10 0 -17 -1h-6v27h6h2h9q34 0 44.5 11.5t10.5 49.5v48q0 30 -7 42t-24 12q-16 0 -26.5 -10.5t-10.5 -25.5q0 -6 3 -26l1 -7l-34 8q-1 11 -1 19q0 29 22 46.5t57 17.5
q36 0 56.5 -20.5t20.5 -56.5v-48q0 -49 -41 -71q48 -16 48 -75v-48q0 -44 -27 -67q-28 -22 -65 -22t-58.5 17t-21.5 45q0 12 4 27z" />
    <glyph glyph-name="fourinferior" unicode="&#x2084;" horiz-adv-x="200" 
d="M183 108h-25v-108h-57v108h-88v23l109 271h36v-266h25v-28zM46 136h56v137z" />
    <glyph glyph-name="fiveinferior" unicode="&#x2085;" horiz-adv-x="200" 
d="M175 400l-10 -43h-99l-15 -128q23 12 44 12q49 0 73 -32q16 -19 16 -64v-48q0 -45 -26.5 -73t-68.5 -28q-35 0 -57.5 16.5t-22.5 42.5q0 9 3 25l34 6q-5 -27 -5 -31q0 -16 10.5 -26.5t26.5 -10.5q49 0 49 80v48q0 38 -10 54t-33 16q-12 0 -20 -5t-23 -21l-23 5l24 205
h133z" />
    <glyph glyph-name="sixinferior" unicode="&#x2086;" horiz-adv-x="200" 
d="M177 334l-34 -8q1 4 1 7l1 4q2 14 2 19q0 11 -7 18.5t-17 7.5q-51 0 -51 -123v-31q15 17 45 17q70 0 70 -95v-44q0 -52 -22 -81t-63 -29q-46 0 -67 30.5t-21 97.5v121q0 59 13 92q13 31 37 49t52 18t45.5 -14.5t17.5 -37.5q0 -5 -1 -13zM72 155v-72q0 -65 29 -65
q28 0 28 70v72q0 63 -22 63q-15 0 -25 -19.5t-10 -48.5z" />
    <glyph glyph-name="seveninferior" unicode="&#x2087;" horiz-adv-x="200" 
d="M194 400v-32q-83 -126 -87 -352v-6l-1 -3v-7h-62l1 6v2q4 103 26.5 174.5t81.5 174.5h-147l7 43h181z" />
    <glyph glyph-name="eightinferior" unicode="&#x2088;" horiz-adv-x="200" 
d="M133 225q37 -28 49.5 -50.5t12.5 -62.5q0 -54 -26.5 -85t-72.5 -31q-41 0 -66 28t-25 75q0 46 27 79q4 4 28 26q-27 23 -36.5 42.5t-9.5 53.5q0 47 24 75.5t64 28.5q34 0 55 -24t21 -62q0 -57 -45 -93zM100 249l15 -10q24 21 24 71q0 40 -8.5 56t-30.5 16q-40 0 -40 -59
q0 -27 8.5 -42.5t31.5 -31.5zM100 176l-21 15q-21 -21 -28 -39.5t-7 -54.5q0 -79 52 -79q51 0 51 71q0 31 -10 49.5t-37 37.5z" />
    <glyph glyph-name="nineinferior" unicode="&#x2089;" horiz-adv-x="200" 
d="M24 66l34 7q-4 -24 -4 -30q0 -11 6.5 -18t17.5 -7q51 0 51 122v32q-17 -17 -45 -17q-70 0 -70 94v44q0 52 22 81t63 29q46 0 67 -30.5t21 -97.5v-120q0 -60 -13 -92q-29 -67 -90 -67q-28 0 -45 14t-17 37q0 6 1 13zM129 245v72q0 64 -29 64q-28 0 -28 -69v-72
q0 -63 22 -63q15 0 25 19.5t10 48.5z" />
    <glyph glyph-name="franc" unicode="&#x20a3;" horiz-adv-x="598" 
d="M259 667v-32h-144v-275h120v-32h-120v-328h-81v667h225zM296 0v667h120q80 0 118 -32.5t38 -99.5v-82q0 -97 -82 -121q37 -12 55 -38q7 -12 9 -35.5t3 -103.5t4.5 -107t13.5 -37q3 -4 10 -11h-93q-10 15 -13 41.5t-4 119.5q0 74 -3 100t-14 39q-17 19 -65 19h-16v-319
h-81zM377 348h15q45 0 69 17q17 14 23 31.5t6 52.5v86q0 35 -6 52.5t-23 31.5q-24 17 -69 17h-15v-288z" />
    <glyph glyph-name="peseta" unicode="&#x20a7;" horiz-adv-x="575" 
d="M34 0v667h109q91 0 131 -34t40 -111v-82q0 -80 -39 -113t-133 -33h-27v-294h-81zM115 325h12q59 0 83 27q19 20 19 92v89q0 56 -22.5 79t-79.5 23h-12v-310zM338 230v-23h-35v-164q0 -23 12 -23q11 0 11 17h22q-6 -40 -49 -40q-50 0 -50 48v162h-26v23h26v48q28 11 54 29
v-77h35zM548 194l-32 -7q2 18 2 24q0 22 -14.5 36t-36.5 14q-20 0 -34 -13t-14 -32t15.5 -33t54.5 -30q37 -16 52.5 -33.5t15.5 -44.5q0 -34 -26 -56t-66 -22q-73 0 -91 56q-4 10 -4 39l33 8q-5 -20 -5 -30q0 -23 18.5 -40t45.5 -17q21 0 34 12.5t13 33.5q0 19 -11.5 29.5
t-44.5 24.5q-81 32 -81 85q0 34 27 56.5t67 22.5q38 0 60 -20.5t22 -57.5v-5z" />
    <glyph glyph-name="Euro" unicode="&#x20ac;" horiz-adv-x="337" 
d="M134 393h110l-10 -40h-100v-40h90l-11 -40h-79v-68q0 -69 7.5 -104.5t27.5 -58.5q16 -19 42 -19q29 0 48.5 30t19.5 76q0 15 -2 37l41 -12q1 -14 1 -27q0 -54 -34 -96q-30 -38 -89 -38q-145 0 -145 225v55h-34l10 40h24v40h-34l10 40h24v29q0 135 46 193q45 59 112 59
q37 0 63.5 -23t35.5 -61q3 -20 3 -42l-39 -21v28q0 41 -16.5 65.5t-44.5 24.5q-25 0 -44 -24q-20 -27 -26.5 -64.5t-6.5 -120.5v-43z" />
    <glyph glyph-name="afii61248" unicode="&#x2105;" horiz-adv-x="312" 
d="M156 374q21 0 35.5 -14.5t14.5 -35.5t-14.5 -35.5t-35.5 -14.5t-35.5 14.5t-14.5 36.5q0 20 15 34.5t35 14.5z" />
    <glyph glyph-name="trademark" unicode="&#x2122;" horiz-adv-x="396" 
d="M156 667v-26h-54v-374h-56v374h-54v26h164zM378 667v-400h-55v253l-49 -253h-35l-47 249v-249h-28v400h56l51 -289l53 289h54z" />
    <glyph glyph-name="uni2126" unicode="&#x2126;" horiz-adv-x="666" 
d="M27 0v68h182q-183 106 -183 296q0 134 89 226.5t218 92.5q128 0 217 -92.5t89 -226.5q0 -190 -183 -296h182v-68h-260v63q68 38 106 84q77 90 77 205q0 110 -66 186.5t-161 76.5q-97 0 -163.5 -76.5t-66.5 -186.5q0 -187 184 -289v-63h-261z" />
    <glyph glyph-name="partialdiff" unicode="&#x2202;" 
d="M85 608l9 63q85 -12 141.5 -36.5t103.5 -69.5q62 -58 95.5 -142.5t33.5 -182.5q0 -93 -39 -154q-30 -46 -77 -71.5t-101 -25.5q-92 0 -155.5 65t-63.5 159q0 93 60 157.5t146 64.5q67 0 106 -31q15 -11 43 -44l-8 16l-25 60q-35 70 -106 115.5t-163 56.5zM257 376
q-66 0 -110.5 -47t-44.5 -117q0 -66 43.5 -113.5t104.5 -47.5q63 0 105 47.5t42 118.5q0 68 -40 113.5t-100 45.5z" />
    <glyph glyph-name="emptyset" unicode="&#x2205;" horiz-adv-x="556" 
d="M395 600l43 -22l-43 -80q101 -71 101 -183q0 -92 -64.5 -155.5t-158.5 -63.5q-42 0 -71 15l-56 -111l-44 23l55 109q-97 73 -97 182q0 92 64 155.5t155 63.5q35 0 73 -13zM374 451l-148 -296q28 -8 52 -8q70 0 119 49t49 118q0 43 -19.5 80t-52.5 57zM180 178l149 296
q-25 8 -48 8q-71 0 -121 -49t-50 -118q0 -81 70 -137z" />
    <glyph glyph-name="Delta" unicode="&#x2206;" horiz-adv-x="622" 
d="M6 0l265 667h79l266 -667h-610zM106 68h408l-203 516z" />
    <glyph glyph-name="product" unicode="&#x220f;" horiz-adv-x="667" 
d="M27 750h613v-63h-74v-874h74v-63h-219v63h75v874h-325v-874h75v-63h-219v63h74v874h-74v63z" />
    <glyph glyph-name="summation" unicode="&#x2211;" horiz-adv-x="667" 
d="M598 750v-230h-71l-7 158h-400l249 -409l-249 -448h409l4 159h74v-230h-573v83l244 436l-244 400v81h564z" />
    <glyph glyph-name="minus" unicode="&#x2212;" horiz-adv-x="312" 
d="M300 349v-49h-289v49h289z" />
    <glyph glyph-name="radical" unicode="&#x221a;" horiz-adv-x="667" 
d="M667 827v-65h-192l-226 -762h-84l-85 293h-80v65h126l42 -139q5 -16 5 -18q15 -58 28 -118h4q5 20 5 22l34 129q12 45 30 107l30 99l114 387h249z" />
    <glyph glyph-name="infinity" unicode="&#x221e;" horiz-adv-x="667" 
d="M335 301q-76 -111 -168 -111q-65 0 -106.5 42.5t-41.5 109.5q0 65 42 107t107 42q92 0 164 -112q40 59 79.5 85.5t89.5 26.5q65 0 106 -42.5t41 -109.5q0 -66 -41 -108t-106 -42q-93 0 -166 112zM362 340q35 -53 65.5 -76.5t67.5 -23.5q41 0 68 28.5t27 71.5q0 44 -27 72
t-69 28q-36 0 -66 -22.5t-66 -77.5zM305 340q-35 53 -66 76.5t-68 23.5q-41 0 -67.5 -28t-26.5 -71q0 -44 27 -72t69 -28q36 0 66 22.5t66 76.5z" />
    <glyph glyph-name="integral" unicode="&#x222b;" 
d="M97 -239l16 72q20 -10 39 -10q41 0 52 34q5 16 5 90v593q1 79 2 95.5t7 35.5q10 37 43 58t78 21q29 0 64 -10l-16 -73q-20 10 -39 10q-41 0 -52 -34q-5 -14 -5 -68v-613q0 -82 -4 -110t-18 -49q-35 -51 -127 -51q-23 0 -45 9z" />
    <glyph glyph-name="approxequal" unicode="&#x2248;" 
d="M53 348l-43 30q53 113 136 113q37 0 116 -39q66 -33 92 -33q28 0 47 14.5t45 55.5l43 -30q-51 -112 -143 -112q-20 0 -42 8t-79 37q-52 26 -83 26q-25 0 -44.5 -15.5t-44.5 -54.5zM53 175l-43 30q52 113 136 113q37 0 116 -39q65 -33 92 -33q28 0 47 14.5t45 55.5l43 -30
q-51 -112 -144 -112q-20 0 -42 8.5t-78 36.5q-53 26 -83 26q-25 0 -45 -15.5t-44 -54.5z" />
    <glyph glyph-name="notequal" unicode="&#x2260;" horiz-adv-x="312" 
d="M219 353l-57 -57h138v-49h-188l-60 -61l-35 35l26 26h-32v49h81l57 57h-138v49h188l60 61l35 -35l-26 -26h32v-49h-81z" />
    <glyph glyph-name="lessequal" unicode="&#x2264;" 
d="M466 596v-76l-344 -134l344 -134v-77l-433 176v70zM466 146v-71h-433v71h433z" />
    <glyph glyph-name="greaterequal" unicode="&#x2265;" 
d="M33 175v77l344 134l-344 134v76l433 -175v-70zM33 75v71h433v-71h-433z" />
    <glyph glyph-name="dotmath" unicode="&#x22c5;" horiz-adv-x="140" 
d="M70 383q21 0 35.5 -14.5t14.5 -35.5t-14.5 -35.5t-35.5 -14.5t-35.5 14.5t-14.5 36.5q0 20 15 34.5t35 14.5z" />
    <glyph glyph-name="lozenge" unicode="&#x25ca;" horiz-adv-x="667" 
d="M334 693l259 -359l-259 -360l-260 360zM334 604l-197 -270l197 -271l197 271z" />
    <glyph glyph-name="dotlessj" unicode="&#xf6be;" horiz-adv-x="211" 
d="M179 667v-565q0 -52 -25 -80.5t-69 -28.5q-43 0 -66.5 26t-23.5 75q0 24 12 68l44 10q-19 -53 -19 -78q0 -30 11 -50.5t27 -20.5q28 0 28 61v583h81z" />
    <glyph glyph-name="commaaccent" unicode="&#xf6c3;" 
d="M204 -214v27q21 9 36.5 30.5t15.5 43.5q-21 0 -28 4q-21 11 -21 38q0 19 12 31t31 12q21 0 33.5 -14t12.5 -37q0 -43 -27 -82t-65 -53z" />
    <glyph glyph-name="Acute" unicode="&#xf6c9;" 
d="M295 817h76l-121 -123h-34z" />
    <glyph glyph-name="Caron" unicode="&#xf6ca;" 
d="M358 819l-82 -123h-50l-84 123h74l50 -71l49 71h43z" />
    <glyph glyph-name="Dieresis" unicode="&#xf6cb;" 
d="M182 798q19 0 33 -13.5t14 -32.5q0 -20 -13.5 -33.5t-33.5 -13.5q-19 0 -32.5 14t-13.5 33t13.5 32.5t32.5 13.5zM317 798q19 0 33 -13.5t14 -32.5q0 -20 -14 -33.5t-33 -13.5t-32.5 14t-13.5 33t13.5 32.5t32.5 13.5z" />
    <glyph glyph-name="Grave" unicode="&#xf6ce;" 
d="M249 694l-120 123h76l79 -123h-35z" />
    <glyph glyph-name="Hungarumlaut" unicode="&#xf6cf;" 
d="M207 694h-31l67 123h82zM313 694h-31l67 123h83z" />
    <glyph glyph-name="Macron" unicode="&#xf6d0;" 
d="M354 776v-45h-209v45h209z" />
    <glyph glyph-name="commasuperior" unicode="&#xf6e2;" horiz-adv-x="143" 
d="M37 190v23q32 16 34 53q-34 3 -34 35q0 14 10 24t25 10q16 0 26 -11.5t10 -28.5q0 -35 -20 -64t-51 -41z" />
    <glyph glyph-name="periodsuperior" unicode="&#xf6e8;" horiz-adv-x="144" 
d="M70 332q15 0 25 -10t10 -24q0 -15 -10 -25t-25 -10q-14 0 -24 10t-10 25q0 14 10 24t24 10z" />
    <glyph glyph-name="Dotaccent" 
d="M249 798q19 0 33 -13.5t14 -32.5q0 -20 -14 -33.5t-33 -13.5t-32.5 14t-13.5 33t13.5 32.5t32.5 13.5z" />
    <glyph glyph-name="Ring" 
d="M249 838q34 0 57.5 -23.5t23.5 -57.5t-23.5 -57.5t-56.5 -23.5q-34 0 -57 23.5t-23 58.5q0 32 23.5 56t55.5 24zM249 799q-17 0 -29.5 -12.5t-12.5 -30.5t12.5 -31t29.5 -13q18 0 30.5 12.5t12.5 31.5q0 18 -12.5 30.5t-30.5 12.5z" />
    <glyph glyph-name="Circumflex" 
d="M142 696l82 123h50l84 -123h-75l-49 71l-49 -71h-43z" />
    <glyph glyph-name="Breve" 
d="M147 822h29q16 -51 74 -51t74 51h29q-15 -109 -103 -109t-103 109z" />
    <glyph glyph-name="Tilde" 
d="M159 704h-35q8 53 24 72q20 22 43 22q20 0 74 -25q33 -15 45 -15q28 0 32 42h35q-8 -51 -19 -68q-18 -28 -51 -28q-27 0 -75 23q-32 16 -48 16q-18 0 -25 -39z" />
    <glyph glyph-name="Cedilla" 
d="M250 10l-20 -53q28 -1 39 -5q17 -7 29 -25t12 -37q0 -31 -25 -54t-60 -23q-18 0 -42 6v26q20 -5 28 -5q16 0 27.5 14t11.5 33q0 44 -49 44h-9l28 79h30z" />
    <glyph glyph-name="Ogonek" 
d="M395 0h60q-71 -16 -71 -69q0 -45 42 -45q1 0 29 2v-24q-28 -7 -49 -7q-34 0 -57 18.5t-23 45.5q0 53 69 79z" />
    <glyph glyph-name="commaaccent.sc" 
d="M204 -214v27q21 9 36.5 30.5t15.5 43.5q-21 0 -28 4q-21 11 -21 38q0 19 12 31t31 12q21 0 33.5 -14t12.5 -37q0 -43 -27 -82t-65 -53z" />
    <glyph glyph-name="Comma.high" 
d="M337 488v27q21 9 36.5 30.5t15.5 43.5q-21 0 -28 4q-21 11 -21 38q0 19 12 31t31 12q21 0 33.5 -14t12.5 -37q0 -43 -27 -82t-65 -53z" />
    <glyph glyph-name="Dieresis.alt" 
d="M196 797q19 0 32 -13t13 -31q0 -19 -13 -32t-32 -13q-18 0 -31 13t-13 32q0 18 13 31t31 13zM303 797q19 0 32 -13t13 -31q0 -19 -13 -32t-32 -13q-18 0 -31 13t-13 32q0 18 13 31t31 13z" />
    <glyph glyph-name="comma.high" 
d="M337 488v27q21 9 36.5 30.5t15.5 43.5q-21 0 -28 4q-21 11 -21 38q0 19 12 31t31 12q21 0 33.5 -14t12.5 -37q0 -43 -27 -82t-65 -53z" />
    <glyph glyph-name="dieresis.alt" 
d="M196 797q19 0 32 -13t13 -31q0 -19 -13 -32t-32 -13q-18 0 -31 13t-13 32q0 18 13 31t31 13zM303 797q19 0 32 -13t13 -31q0 -19 -13 -32t-32 -13q-18 0 -31 13t-13 32q0 18 13 31t31 13z" />
    </font>
</defs>
</svg>
